<?xml version="1.0" encoding="UTF-8"?>


<!DOCTYPE svg PUBLIC "-//W3C//DTD SVG 1.1//EN" "http://www.w3.org/Graphics/SVG/1.1/DTD/svg11.dtd">

<svg xmlns="http://www.w3.org/2000/svg" xml:space="preserve" width="661px" height="250px" version="1.1"
     style="shape-rendering:geometricPrecision; text-rendering:geometricPrecision; image-rendering:optimizeQuality; fill-rule:evenodd; clip-rule:evenodd"
     viewBox="0 0 669.79 253.56"
>
 <defs>
  <style type="text/css">
   <![CDATA[
    .fil0 {fill:#F1F2F211;fill-rule:nonzero}
    .fil1 {fill:#ffffff;fill-rule:nonzero}
   ]]>
  </style>
 </defs>
    <g id="Layer_x0020_1">
  <metadata id="CorelCorpID_0Corel-Layer"/>
        <polygon class="fil0" points="669.79,253.56 0,253.56 0,0 669.79,0 "/>
        <polygon class="fil1" points="274.37,58.68 49.1,58.68 49.1,28.47 274.37,28.47 "/>
        <polygon class="fil1" points="586.06,79.9 49.39,79.9 49.39,69.33 586.06,69.33 "/>
        <polygon class="fil1" points="188.17,237.55 59.39,237.55 59.39,108.77 188.17,108.77 "/>
        <polygon class="fil1" points="586.51,233.4 505.97,233.4 505.97,152.85 586.51,152.85 "/>
        <polygon class="fil1" points="348.71,95.34 49.95,95.34 49.95,84.77 348.71,84.77 "/>
        <polygon class="fil1" points="585.59,119.61 194.48,119.61 194.48,109.04 585.59,109.04 "/>
        <polygon class="fil1" points="585.59,138.54 194.48,138.54 194.48,127.97 585.59,127.97 "/>
        <polygon class="fil1" points="494.16,158.4 195.4,158.4 195.4,147.82 494.16,147.82 "/>
        <polygon class="fil1" points="494.63,179.18 195.87,179.18 195.87,168.6 494.63,168.6 "/>
 </g>
</svg>
