<!--
  - Copyright (c) 2023. Selldone® Business OS™
  -
  - Author: M.Pajuhaan
  - Web: https://selldone.com
  - ━━━━━━━━━━━━━━━━━━━━━━━━━━━━━━━━━━━━━━━━━━━━━━━━━━━━━━
  -
  - All rights reserved. In the weave of time, where traditions and innovations intermingle, this content was crafted.
  - From the essence of thought, through the corridors of creativity, each word, and sentiment has been molded.
  - Not just to exist, but to inspire. Like an artist's stroke or a sculptor's chisel, every nuance is deliberate.
  - Our journey is not just about reaching a destination, but about creating a masterpiece.
  - Tread carefully, for you're treading on dreams.
  -->

<svg xmlns="http://www.w3.org/2000/svg" width="435.15" height="106.66" viewBox="0 0 435.15 106.66">
    <title>Asset 9</title>
    <g id="Layer_2" data-name="Layer 2">
        <g id="Layer_1-2" data-name="Layer 1">
            <rect width="435.15" height="106.66" fill="#F1F2F211"/>
            <rect x="31.9" y="18.5" width="125.6" height="19.63" fill="#ffffff"/>
            <rect x="31.9" y="50.46" width="106.58" height="9.27" fill="#ffffff"/>
            <rect x="177.77" y="18.6" width="31.39" height="31.39" fill="#ffffff"/>
            <rect x="31.9" y="64.8" width="106.58" height="9.27" fill="#ffffff"/>
            <rect x="31.9" y="79.13" width="106.58" height="9.27" fill="#ffffff"/>
            <rect x="220.91" y="18.6" width="31.39" height="31.39" fill="#ffffff"/>
            <rect x="264.04" y="18.6" width="31.39" height="31.39" fill="#ffffff"/>
            <rect x="307.17" y="18.6" width="31.39" height="31.39" fill="#ffffff"/>
            <rect x="350.31" y="18.6" width="31.39" height="31.39" fill="#ffffff"/>
            <rect x="393.44" y="18.6" width="31.39" height="31.39" fill="#ffffff"/>
            <rect x="177.77" y="58.93" width="31.39" height="31.39" fill="#ffffff"/>
            <rect x="220.91" y="58.93" width="31.39" height="31.39" fill="#ffffff"/>
            <rect x="264.04" y="58.93" width="31.39" height="31.39" fill="#ffffff"/>
            <rect x="307.17" y="58.93" width="31.39" height="31.39" fill="#ffffff"/>
            <rect x="350.31" y="58.93" width="31.39" height="31.39" fill="#ffffff"/>
            <rect x="393.44" y="58.93" width="31.39" height="31.39" fill="#ffffff"/>
        </g>
    </g>
</svg>