<?xml version="1.0" encoding="UTF-8"?>


<!DOCTYPE svg PUBLIC "-//W3C//DTD SVG 1.1//EN" "http://www.w3.org/Graphics/SVG/1.1/DTD/svg11.dtd">

<svg xmlns="http://www.w3.org/2000/svg" xml:space="preserve" width="1813px" height="721px" version="1.1" style="shape-rendering:geometricPrecision; text-rendering:geometricPrecision; image-rendering:optimizeQuality; fill-rule:evenodd; clip-rule:evenodd"
viewBox="0 0 414.42 164.78"
 xmlns:xlink="http://www.w3.org/1999/xlink"
>
 <defs>
  <style type="text/css">
   <![CDATA[
    .fil2 {fill:#38ACE2}
    .fil3 {fill:#FEFEFE;fill-rule:nonzero}
    .fil1 {fill:#E7E8E8;fill-rule:nonzero}
    .fil0 {fill:#F1F2F211;fill-rule:nonzero}
   ]]>
  </style>
 </defs>
 <g id="Layer_x0020_1">
  <metadata id="CorelCorpID_0Corel-Layer"/>
  <polygon class="fil0" points="414.42,164.78 0,164.78 0,0 414.42,0 "/>
  <polygon class="fil1" points="290.28,24.35 124.14,24.35 124.14,10.7 290.28,10.7 "/>
  <polygon class="fil1" points="283.53,40.18 130.89,40.18 130.89,33.73 283.53,33.73 "/>
  <polygon class="fil1" points="283.53,51.08 130.89,51.08 130.89,44.63 283.53,44.63 "/>
  <polygon class="fil1" points="283.53,137.11 130.89,137.11 130.89,130.67 283.53,130.67 "/>
  <polygon class="fil1" points="283.53,148.01 130.89,148.01 130.89,141.57 283.53,141.57 "/>
  <rect class="fil2" x="95.22" y="67.06" width="223.98" height="30.67" rx="5.08" ry="6.5"/>
  <g id="_1993414317824">
   <g>
    <path class="fil3" d="M123.3 88.3c-0.64,-0.64 -2.65,-2.13 -4.64,-3.27 -0.02,0.03 -0.04,0.06 -0.07,0.1 2.26,-3.63 1.81,-8.46 -1.34,-11.62 -3.68,-3.67 -9.63,-3.67 -13.31,0 -3.67,3.68 -3.67,9.63 0,13.31 3.13,3.12 7.89,3.59 11.51,1.41 1.04,1.81 2.56,3.93 3.28,4.65 1.26,1.26 3.31,1.25 4.57,-0.01 1.26,-1.26 1.26,-3.31 0,-4.57zm-8.53 -3.96c-2.31,2.3 -6.04,2.3 -8.34,0 -2.31,-2.31 -2.31,-6.04 0,-8.34 2.3,-2.31 6.03,-2.31 8.34,0 2.3,2.3 2.3,6.04 0,8.34l0 0z"/>
   </g>
  </g>
 </g>
</svg>
