<?xml version="1.0" encoding="UTF-8"?>


<!DOCTYPE svg PUBLIC "-//W3C//DTD SVG 1.1//EN" "http://www.w3.org/Graphics/SVG/1.1/DTD/svg11.dtd">

<svg xmlns="http://www.w3.org/2000/svg" xml:space="preserve" width="1813px" height="686px" version="1.1" style="shape-rendering:geometricPrecision; text-rendering:geometricPrecision; image-rendering:optimizeQuality; fill-rule:evenodd; clip-rule:evenodd"
viewBox="0 0 1790.85 677.97"
 xmlns:xlink="http://www.w3.org/1999/xlink"
 xmlns:xodm="http://www.corel.com/coreldraw/odm/2003">
 <defs>
  <style type="text/css">
   <![CDATA[
    .fil2 {fill:#A8518A}
    .fil1 {fill:#FEFEFE;fill-rule:nonzero}
    .fil0 {fill:#FEFEFE;fill-rule:nonzero;fill-opacity:0.050980}
   ]]>
  </style>
 </defs>
 <g id="Layer_x0020_1">
  <metadata id="CorelCorpID_0Corel-Layer"/>
  <polygon class="fil0" points="1790.85,677.97 0,677.97 0,0 1790.85,0 "/>
  <g id="_2992008130448">
   <path class="fil1" d="M1186.12 330.15l-150.24 -150.24c-4.67,-4.68 -12.94,-4.68 -17.61,0l-32.57 32.57c-4.87,4.86 -4.87,12.75 0,17.61l108.86 108.86 -108.86 108.87c-4.86,4.87 -4.86,12.75 0,17.62l32.57 32.57c2.34,2.33 5.51,3.65 8.81,3.65 3.3,0 6.47,-1.32 8.81,-3.65l150.23 -150.24c4.86,-4.87 4.86,-12.76 0,-17.62z"/>
   <path class="fil1" d="M805.15 447.82l-108.85 -108.86 108.87 -108.86c2.33,-2.33 3.65,-5.5 3.65,-8.8 0,-3.3 -1.31,-6.48 -3.65,-8.81l-32.57 -32.57c-2.34,-2.34 -5.51,-3.65 -8.81,-3.65 -3.3,0 -6.47,1.31 -8.81,3.65l-150.25 150.23c-4.86,4.86 -4.86,12.75 0,17.62l150.24 150.23c2.34,2.34 5.51,3.66 8.81,3.66 3.3,0 6.47,-1.32 8.81,-3.66l32.57 -32.57c4.87,-4.86 4.87,-12.74 -0.01,-17.61z"/>
   <path class="fil1" d="M980.86 129.36c-1.58,-2.9 -4.24,-5.06 -7.41,-5.99l-26.41 -7.79c-6.59,-1.96 -13.53,1.82 -15.47,8.42l-122.58 415.13c-0.94,3.17 -0.57,6.58 1,9.47 1.57,2.91 4.25,5.06 7.41,6l26.41 7.8c1.18,0.34 2.37,0.51 3.53,0.51 5.38,0 10.34,-3.51 11.94,-8.94l122.59 -415.13c0.93,-3.17 0.58,-6.58 -1.01,-9.48z"/>
  </g>
  <circle class="fil2" cx="113.04" cy="98.04" r="51.05"/>
 </g>
</svg>
