<?xml version="1.0" encoding="UTF-8"?>


<!DOCTYPE svg PUBLIC "-//W3C//DTD SVG 1.1//EN" "http://www.w3.org/Graphics/SVG/1.1/DTD/svg11.dtd">

<svg xmlns="http://www.w3.org/2000/svg" xml:space="preserve" width="1813px" height="721px" version="1.1"
     style="shape-rendering:geometricPrecision; text-rendering:geometricPrecision; image-rendering:optimizeQuality; fill-rule:evenodd; clip-rule:evenodd"
     viewBox="0 0 417.71 166.09"
>
 <defs>
  <style type="text/css">
   <![CDATA[
    .fil2 {fill:#A8518A}
    .fil1 {fill:#E7E8E8;fill-rule:nonzero}
    .fil0 {fill:#F1F2F211;fill-rule:nonzero}
   ]]>
  </style>
 </defs>
    <g id="Layer_x0020_1">
  <metadata id="CorelCorpID_0Corel-Layer"/>
        <polygon class="fil0" points="417.71,166.09 0,166.09 0,0 417.71,0 "/>
        <polygon class="fil1" points="365.39,137.58 262.08,137.58 262.08,34.26 365.39,34.26 "/>
        <polygon class="fil1" points="180.21,45.25 25.63,45.25 25.63,26.42 180.21,26.42 "/>
        <polygon class="fil1" points="167.66,64.34 25.63,64.34 25.63,55.45 167.66,55.45 "/>
        <polygon class="fil1" points="167.66,79.51 25.63,79.51 25.63,70.62 167.66,70.62 "/>
        <polygon class="fil1" points="167.66,94.68 25.63,94.68 25.63,85.79 167.66,85.79 "/>
        <polygon class="fil1" points="89.71,133.66 25.63,133.66 25.63,112.99 89.71,112.99 "/>
        <g id="_1956981319136">
   <path class="fil2"
         d="M331.64 85.92c0,0.01 0,0.02 0,0.03 0,1.53 -0.82,2.95 -2.16,3.71l-27.17 15.69c-0.65,0.38 -1.4,0.59 -2.16,0.59 -0.76,0 -1.5,-0.21 -2.16,-0.59 -1.34,-0.76 -2.16,-2.18 -2.16,-3.72 0,0 0,-0.01 0,-0.02l0 -31.38c0,-0.01 0,-0.01 0,-0.02 0,-1.54 0.82,-2.96 2.16,-3.72 0.66,-0.38 1.4,-0.58 2.16,-0.58 0.76,0 1.51,0.2 2.16,0.58l27.17 15.69c1.34,0.76 2.16,2.18 2.16,3.72 0,0 0,0.01 0,0.02l0 0z"/>
  </g>
 </g>
</svg>
