<?xml version="1.0" encoding="UTF-8"?>


<!DOCTYPE svg PUBLIC "-//W3C//DTD SVG 1.1//EN" "http://www.w3.org/Graphics/SVG/1.1/DTD/svg11.dtd">

<svg xmlns="http://www.w3.org/2000/svg" xml:space="preserve" width="1813px" height="822px" version="1.1"
     style="shape-rendering:geometricPrecision; text-rendering:geometricPrecision; image-rendering:optimizeQuality; fill-rule:evenodd; clip-rule:evenodd"
     viewBox="0 0 439.95 199.41"
>
 <defs>
  <style type="text/css">
   <![CDATA[
    .fil1 {fill:#FEFEFE;fill-rule:nonzero}
    .fil2 {fill:#FBC02D;fill-rule:nonzero}
    .fil0 {fill:#F1F2F2;fill-rule:nonzero;fill-opacity:0.050980}
   ]]>
  </style>
 </defs>
    <g id="Layer_x0020_1">
  <metadata id="CorelCorpID_0Corel-Layer"/>
        <polygon class="fil0" points="439.95,199.41 0,199.41 0,0 439.95,0 "/>
        <polygon class="fil1" points="102.61,98.15 18.02,98.15 18.02,13.56 102.61,13.56 "/>
        <polygon class="fil1" points="208.55,98.15 123.96,98.15 123.96,13.56 208.55,13.56 "/>
        <polygon class="fil1" points="314.48,98.15 229.89,98.15 229.89,13.56 314.48,13.56 "/>
        <polygon class="fil1" points="420.41,98.15 335.82,98.15 335.82,13.56 420.41,13.56 "/>
        <polygon class="fil1" points="103.37,189.42 18.78,189.42 18.78,104.83 103.37,104.83 "/>
        <polygon class="fil1" points="209.3,189.42 124.71,189.42 124.71,104.83 209.3,104.83 "/>
        <polygon class="fil1" points="315.23,189.42 230.65,189.42 230.65,104.83 315.23,104.83 "/>
        <polygon class="fil1" points="421.17,189.42 336.58,189.42 336.58,104.83 421.17,104.83 "/>
        <g id="_1960124576000">
   <g>
    <g>
     <path class="fil2"
           d="M51.96 50.47c1.12,0 2.02,-0.91 2.02,-2.02l0 -7.89c0,-3.52 2.87,-6.39 6.4,-6.39 3.52,0 6.39,2.87 6.39,6.39l0 7.89c0,1.11 0.91,2.02 2.02,2.02 1.12,0 2.03,-0.91 2.03,-2.02l0 -7.89c0,-5.75 -4.69,-10.44 -10.44,-10.44 -5.76,0 -10.44,4.69 -10.44,10.44l0 7.89c0,1.11 0.9,2.02 2.02,2.02z"/>
        <path class="fil2"
              d="M83.57 45.93l-10.73 0 0 2.52c0,2.23 -1.82,4.04 -4.05,4.04 -2.23,0 -4.04,-1.81 -4.04,-4.04l0 -2.52 -8.74 0 0 2.52c0,2.23 -1.82,4.04 -4.05,4.04 -2.23,0 -4.04,-1.81 -4.04,-4.04l0 -2.52 -10.86 0c-0.55,0 -0.9,0.44 -0.77,0.98l7.08 28.81c0.43,1.62 2.13,2.93 3.81,2.93l26.28 0c1.68,0 3.38,-1.31 3.81,-2.93l7.07 -28.81c0.13,-0.54 -0.21,-0.98 -0.77,-0.98z"/>
    </g>
   </g>
  </g>
        <g id="_1960124580160">
   <g>
    <g>
     <path class="fil2"
           d="M157.89 50.47c1.12,0 2.03,-0.91 2.03,-2.02l0 -7.89c0,-3.52 2.86,-6.39 6.39,-6.39 3.53,0 6.39,2.87 6.39,6.39l0 7.89c0,1.11 0.91,2.02 2.03,2.02 1.11,0 2.02,-0.91 2.02,-2.02l0 -7.89c0,-5.75 -4.68,-10.44 -10.44,-10.44 -5.75,0 -10.44,4.69 -10.44,10.44l0 7.89c0,1.11 0.91,2.02 2.02,2.02z"/>
        <path class="fil2"
              d="M189.5 45.93l-10.73 0 0 2.52c0,2.23 -1.81,4.04 -4.04,4.04 -2.23,0 -4.05,-1.81 -4.05,-4.04l0 -2.52 -8.74 0 0 2.52c0,2.23 -1.82,4.04 -4.05,4.04 -2.23,0 -4.04,-1.81 -4.04,-4.04l0 -2.52 -10.85 0c-0.56,0 -0.9,0.44 -0.77,0.98l7.07 28.81c0.43,1.62 2.13,2.93 3.81,2.93l26.28 0c1.68,0 3.38,-1.31 3.81,-2.93l7.08 -28.81c0.13,-0.54 -0.22,-0.98 -0.78,-0.98z"/>
    </g>
   </g>
  </g>
        <g id="_1960124582400">
   <g>
    <g>
     <path class="fil2"
           d="M263.83 50.47c1.11,0 2.02,-0.91 2.02,-2.02l0 -7.89c0,-3.52 2.87,-6.39 6.39,-6.39 3.53,0 6.4,2.87 6.4,6.39l0 7.89c0,1.11 0.9,2.02 2.02,2.02 1.12,0 2.02,-0.91 2.02,-2.02l0 -7.89c0,-5.75 -4.68,-10.44 -10.44,-10.44 -5.75,0 -10.44,4.69 -10.44,10.44l0 7.89c0,1.11 0.91,2.02 2.03,2.02z"/>
        <path class="fil2"
              d="M295.44 45.93l-10.74 0 0 2.52c0,2.23 -1.81,4.04 -4.04,4.04 -2.23,0 -4.04,-1.81 -4.04,-4.04l0 -2.52 -8.75 0 0 2.52c0,2.23 -1.81,4.04 -4.04,4.04 -2.23,0 -4.05,-1.81 -4.05,-4.04l0 -2.52 -10.85 0c-0.56,0 -0.9,0.44 -0.77,0.98l7.07 28.81c0.43,1.62 2.14,2.93 3.81,2.93l26.29 0c1.67,0 3.38,-1.31 3.81,-2.93l7.07 -28.81c0.13,-0.54 -0.21,-0.98 -0.77,-0.98z"/>
    </g>
   </g>
  </g>
        <g id="_1960124582080">
   <g>
    <g>
     <path class="fil2"
           d="M369.76 50.47c1.12,0 2.02,-0.91 2.02,-2.02l0 -7.89c0,-3.52 2.87,-6.39 6.4,-6.39 3.52,0 6.39,2.87 6.39,6.39l0 7.89c0,1.11 0.91,2.02 2.02,2.02 1.12,0 2.02,-0.91 2.02,-2.02l0 -7.89c0,-5.75 -4.68,-10.44 -10.43,-10.44 -5.76,0 -10.44,4.69 -10.44,10.44l0 7.89c0,1.11 0.9,2.02 2.02,2.02z"/>
        <path class="fil2"
              d="M401.37 45.93l-10.73 0 0 2.52c0,2.23 -1.82,4.04 -4.05,4.04 -2.23,0 -4.04,-1.81 -4.04,-4.04l0 -2.52 -8.75 0 0 2.52c0,2.23 -1.81,4.04 -4.04,4.04 -2.23,0 -4.04,-1.81 -4.04,-4.04l0 -2.52 -10.86 0c-0.55,0 -0.9,0.44 -0.77,0.98l7.08 28.81c0.42,1.62 2.13,2.93 3.8,2.93l26.29 0c1.68,0 3.38,-1.31 3.81,-2.93l7.07 -28.81c0.13,-0.54 -0.21,-0.98 -0.77,-0.98z"/>
    </g>
   </g>
  </g>
        <g id="_1960124584832">
   <g>
    <g>
     <path class="fil2"
           d="M54.65 138.78c1.12,0 2.02,-0.9 2.02,-2.02l0 -7.88c0,-3.53 2.87,-6.4 6.4,-6.4 3.52,0 6.39,2.87 6.39,6.4l0 7.88c0,1.12 0.91,2.02 2.02,2.02 1.12,0 2.03,-0.9 2.03,-2.02l0 -7.88c0,-5.76 -4.69,-10.44 -10.44,-10.44 -5.76,0 -10.44,4.68 -10.44,10.44l0 7.88c0,1.12 0.9,2.02 2.02,2.02z"/>
        <path class="fil2"
              d="M86.26 134.24l-10.73 0 0 2.52c0,2.23 -1.82,4.05 -4.05,4.05 -2.23,0 -4.04,-1.82 -4.04,-4.05l0 -2.52 -8.75 0 0 2.52c0,2.23 -1.81,4.05 -4.04,4.05 -2.23,0 -4.04,-1.82 -4.04,-4.05l0 -2.52 -10.86 0c-0.55,0 -0.9,0.44 -0.77,0.98l7.08 28.81c0.43,1.62 2.13,2.94 3.8,2.94l26.29 0c1.68,0 3.38,-1.32 3.81,-2.94l7.07 -28.81c0.13,-0.54 -0.21,-0.98 -0.77,-0.98z"/>
    </g>
   </g>
  </g>
        <g id="_1960114156512">
   <g>
    <g>
     <path class="fil2"
           d="M160.58 138.78c1.12,0 2.02,-0.9 2.02,-2.02l0 -7.88c0,-3.53 2.87,-6.4 6.4,-6.4 3.52,0 6.39,2.87 6.39,6.4l0 7.88c0,1.12 0.91,2.02 2.03,2.02 1.11,0 2.02,-0.9 2.02,-2.02l0 -7.88c0,-5.76 -4.69,-10.44 -10.44,-10.44 -5.76,0 -10.44,4.68 -10.44,10.44l0 7.88c0,1.12 0.91,2.02 2.02,2.02z"/>
        <path class="fil2"
              d="M192.19 134.24l-10.73 0 0 2.52c0,2.23 -1.81,4.05 -4.04,4.05 -2.23,0 -4.05,-1.82 -4.05,-4.05l0 -2.52 -8.74 0 0 2.52c0,2.23 -1.82,4.05 -4.05,4.05 -2.23,0 -4.04,-1.82 -4.04,-4.05l0 -2.52 -10.85 0c-0.56,0 -0.91,0.44 -0.77,0.98l7.07 28.81c0.43,1.62 2.13,2.94 3.81,2.94l26.28 0c1.68,0 3.38,-1.32 3.81,-2.94l7.08 -28.81c0.13,-0.54 -0.22,-0.98 -0.78,-0.98z"/>
    </g>
   </g>
  </g>
        <g id="_1960114144288">
   <g>
    <g>
     <path class="fil2"
           d="M266.52 138.78c1.11,0 2.02,-0.9 2.02,-2.02l0 -7.88c0,-3.53 2.87,-6.4 6.39,-6.4 3.53,0 6.4,2.87 6.4,6.4l0 7.88c0,1.12 0.9,2.02 2.02,2.02 1.11,0 2.02,-0.9 2.02,-2.02l0 -7.88c0,-5.76 -4.68,-10.44 -10.44,-10.44 -5.75,0 -10.44,4.68 -10.44,10.44l0 7.88c0,1.12 0.91,2.02 2.03,2.02z"/>
        <path class="fil2"
              d="M298.13 134.24l-10.74 0 0 2.52c0,2.23 -1.81,4.05 -4.04,4.05 -2.23,0 -4.05,-1.82 -4.05,-4.05l0 -2.52 -8.74 0 0 2.52c0,2.23 -1.81,4.05 -4.04,4.05 -2.23,0 -4.05,-1.82 -4.05,-4.05l0 -2.52 -10.85 0c-0.56,0 -0.9,0.44 -0.77,0.98l7.07 28.81c0.43,1.62 2.13,2.94 3.81,2.94l26.29 0c1.67,0 3.38,-1.32 3.81,-2.94l7.07 -28.81c0.13,-0.54 -0.21,-0.98 -0.77,-0.98z"/>
    </g>
   </g>
  </g>
        <g id="_1960114145984">
   <g>
    <g>
     <path class="fil2"
           d="M372.45 138.78c1.11,0 2.02,-0.9 2.02,-2.02l0 -7.88c0,-3.53 2.87,-6.4 6.39,-6.4 3.53,0 6.4,2.87 6.4,6.4l0 7.88c0,1.12 0.91,2.02 2.02,2.02 1.12,0 2.02,-0.9 2.02,-2.02l0 -7.88c0,-5.76 -4.68,-10.44 -10.44,-10.44 -5.75,0 -10.43,4.68 -10.43,10.44l0 7.88c0,1.12 0.9,2.02 2.02,2.02z"/>
        <path class="fil2"
              d="M404.06 134.24l-10.73 0 0 2.52c0,2.23 -1.82,4.05 -4.05,4.05 -2.23,0 -4.04,-1.82 -4.04,-4.05l0 -2.52 -8.75 0 0 2.52c0,2.23 -1.81,4.05 -4.04,4.05 -2.23,0 -4.04,-1.82 -4.04,-4.05l0 -2.52 -10.86 0c-0.56,0 -0.9,0.44 -0.77,0.98l7.08 28.81c0.42,1.62 2.13,2.94 3.8,2.94l26.29 0c1.68,0 3.38,-1.32 3.81,-2.94l7.07 -28.81c0.13,-0.54 -0.21,-0.98 -0.77,-0.98z"/>
    </g>
   </g>
  </g>
 </g>
</svg>
