<?xml version="1.0" encoding="UTF-8"?>


<!DOCTYPE svg PUBLIC "-//W3C//DTD SVG 1.1//EN" "http://www.w3.org/Graphics/SVG/1.1/DTD/svg11.dtd">

<svg xmlns="http://www.w3.org/2000/svg" xml:space="preserve" width="1813px" height="686px" version="1.1"
     style="shape-rendering:geometricPrecision; text-rendering:geometricPrecision; image-rendering:optimizeQuality; fill-rule:evenodd; clip-rule:evenodd"
     viewBox="0 0 441.74 167.23"
>
 <defs>
  <style type="text/css">
   <![CDATA[
    .fil2 {fill:#FEFEFE;fill-rule:nonzero}
    .fil1 {fill:#38ACE2;fill-rule:nonzero}
    .fil0 {fill:#FEFEFE;fill-rule:nonzero;fill-opacity:0.050980}
   ]]>
  </style>
 </defs>
    <g id="Layer_x0020_1">
  <metadata id="CorelCorpID_0Corel-Layer"/>
        <polygon class="fil0" points="441.74,167.23 0,167.23 0,0 441.74,0 "/>
        <polygon class="fil1" points="409.88,156.67 34.41,156.67 34.41,14.13 409.88,14.13 "/>
        <polygon class="fil2" points="163.44,46.76 46.77,46.76 46.77,26.83 163.44,26.83 "/>
        <polygon class="fil2" points="132.04,61.69 46.77,61.69 46.77,52.28 132.04,52.28 "/>
        <g id="layer1">
   <path id="path9429" class="fil2"
         d="M380.8 71.38c-0.02,0 -0.03,0 -0.05,0 -1.1,0 -1.99,0.89 -1.99,1.99 0,0.6 0.26,1.16 0.72,1.54l12.21 10.46 -12.21 10.45c-0.51,0.38 -0.81,0.97 -0.81,1.61 0,1.1 0.89,1.99 1.99,1.99 0.53,0 1.04,-0.21 1.41,-0.58l13.98 -11.96c0.44,-0.38 0.7,-0.93 0.7,-1.51 0,-0.59 -0.26,-1.14 -0.7,-1.52l-13.98 -11.97c-0.35,-0.31 -0.8,-0.49 -1.27,-0.5l0 0z"
         font-variant-ligatures="normal" font-variant-position="normal" font-variant-caps="normal"
         font-variant-numeric="normal" font-variant-alternates="normal" font-feature-settings="normal" text-indent="0"
         text-decoration-line="none" text-decoration-style="solid" text-decoration-color="rgb(0,0,0)"
         text-transform="none" text-orientation="mixed" white-space="normal" shape-padding="0" isolation="auto"
         mix-blend-mode="normal" solid-color="rgb(0,0,0)" solid-opacity="1" vector-effect="none"/>
  </g>
        <g id="layer1_0">
   <path id="path9429_1" class="fil2"
         d="M65.21 71.38c0.02,0 0.03,0 0.05,0 1.1,0 1.99,0.89 1.99,1.99 0,0.6 -0.26,1.16 -0.72,1.54l-12.21 10.46 12.21 10.45c0.51,0.38 0.81,0.97 0.81,1.61 0,1.1 -0.89,1.99 -1.99,1.99 -0.53,0 -1.04,-0.21 -1.41,-0.58l-13.98 -11.96c-0.44,-0.38 -0.7,-0.93 -0.7,-1.51 0,-0.59 0.26,-1.14 0.7,-1.52l13.98 -11.97c0.35,-0.31 0.8,-0.49 1.27,-0.5l0 0z"
         font-variant-ligatures="normal" font-variant-position="normal" font-variant-caps="normal"
         font-variant-numeric="normal" font-variant-alternates="normal" font-feature-settings="normal" text-indent="0"
         text-decoration-line="none" text-decoration-style="solid" text-decoration-color="rgb(0,0,0)"
         text-transform="none" text-orientation="mixed" white-space="normal" shape-padding="0" isolation="auto"
         mix-blend-mode="normal" solid-color="rgb(0,0,0)" solid-opacity="1" vector-effect="none"/>
  </g>
 </g>
</svg>
