<?xml version="1.0" encoding="UTF-8"?>
<!--
  - Copyright (c) 2023. Selldone® Business OS™
  -
  - Author: M.Pajuhaan
  - Web: https://selldone.com
  - ━━━━━━━━━━━━━━━━━━━━━━━━━━━━━━━━━━━━━━━━━━━━━━━━━━━━━━
  -
  - All rights reserved. In the weave of time, where traditions and innovations intermingle, this content was crafted.
  - From the essence of thought, through the corridors of creativity, each word, and sentiment has been molded.
  - Not just to exist, but to inspire. Like an artist's stroke or a sculptor's chisel, every nuance is deliberate.
  - Our journey is not just about reaching a destination, but about creating a masterpiece.
  - Tread carefully, for you're treading on dreams.
  -->

<!DOCTYPE svg PUBLIC "-//W3C//DTD SVG 1.1//EN" "http://www.w3.org/Graphics/SVG/1.1/DTD/svg11.dtd">
<!-- Creator: CorelDRAW -->
<svg xmlns="http://www.w3.org/2000/svg" xml:space="preserve" width="3.71219in" height="1.40534in" version="1.1" style="shape-rendering:geometricPrecision; text-rendering:geometricPrecision; image-rendering:optimizeQuality; fill-rule:evenodd; clip-rule:evenodd"
viewBox="0 0 247.15 93.57"
 xmlns:xlink="http://www.w3.org/1999/xlink"
 xmlns:xodm="http://www.corel.com/coreldraw/odm/2003">
 <defs>
  <style type="text/css">
   <![CDATA[
    .fil3 {fill:#FEFEFE}
    .fil2 {fill:#FBC02D;fill-rule:nonzero}
    .fil1 {fill:#FEFEFE;fill-rule:nonzero}
    .fil0 {fill:#FEFEFE;fill-rule:nonzero;fill-opacity:0.050980}
   ]]>
  </style>
 </defs>
 <g id="Layer_x0020_1">
  <metadata id="CorelCorpID_0Corel-Layer"/>
  <polygon class="fil0" points="247.15,93.57 -0,93.57 -0,0 247.15,0 "/>
  <g id="_2371361240480">
   <polygon class="fil1" points="55.66,42.04 15.47,42.04 15.47,16.03 55.66,16.03 "/>
   <polygon class="fil1" points="55.61,48.95 15.27,48.95 15.27,44.21 55.61,44.21 "/>
   <polygon class="fil1" points="55.06,54.09 15.12,54.09 15.12,51.04 55.06,51.04 "/>
   <g>
    <g>
     <g>
      <path class="fil2" d="M33.73 28.17c0.25,0 0.45,-0.2 0.45,-0.45l0 -1.74c0,-0.78 0.63,-1.41 1.41,-1.41 0.78,0 1.41,0.63 1.41,1.41l0 1.74c0,0.25 0.2,0.45 0.45,0.45 0.25,0 0.45,-0.2 0.45,-0.45l0 -1.74c0,-1.27 -1.03,-2.3 -2.3,-2.3 -1.27,0 -2.3,1.03 -2.3,2.3l0 1.74c-0,0.25 0.2,0.45 0.44,0.45z"/>
      <path class="fil2" d="M40.69 27.17l-2.36 0 0 0.55c0,0.49 -0.4,0.89 -0.89,0.89 -0.49,0 -0.89,-0.4 -0.89,-0.89l0 -0.55 -1.92 0 0 0.55c0,0.49 -0.4,0.89 -0.89,0.89 -0.49,0 -0.89,-0.4 -0.89,-0.89l0 -0.55 -2.39 0c-0.12,0 -0.2,0.1 -0.17,0.22l1.56 6.34c0.09,0.36 0.47,0.65 0.84,0.65l5.79 0c0.37,0 0.74,-0.29 0.84,-0.65l1.56 -6.34c0.03,-0.12 -0.05,-0.22 -0.17,-0.22z"/>
     </g>
    </g>
   </g>
   <rect class="fil3" x="24.19" y="67.84" width="21.81" height="7.86" rx="2.62" ry="2.62"/>
   <circle class="fil3" cx="24.72" cy="61.4" r="2.28"/>
   <circle class="fil3" cx="31.69" cy="61.4" r="2.28"/>
   <circle class="fil3" cx="38.65" cy="61.4" r="2.28"/>
   <circle class="fil3" cx="45.62" cy="61.4" r="2.28"/>
  </g>
  <g id="_2371361244368">
   <polygon class="fil1" points="114.45,42.04 74.26,42.04 74.26,16.03 114.45,16.03 "/>
   <polygon class="fil1" points="114.4,48.95 74.06,48.95 74.06,44.21 114.4,44.21 "/>
   <polygon class="fil1" points="113.85,54.09 73.91,54.09 73.91,51.04 113.85,51.04 "/>
   <g>
    <g>
     <g>
      <path class="fil2" d="M92.51 28.17c0.25,0 0.45,-0.2 0.45,-0.45l0 -1.74c0,-0.78 0.63,-1.41 1.41,-1.41 0.78,0 1.41,0.63 1.41,1.41l0 1.74c0,0.25 0.2,0.45 0.45,0.45 0.25,0 0.45,-0.2 0.45,-0.45l0 -1.74c0,-1.27 -1.03,-2.3 -2.3,-2.3 -1.27,0 -2.3,1.03 -2.3,2.3l0 1.74c-0,0.25 0.2,0.45 0.44,0.45z"/>
      <path class="fil2" d="M99.47 27.17l-2.36 0 0 0.55c0,0.49 -0.4,0.89 -0.89,0.89 -0.49,0 -0.89,-0.4 -0.89,-0.89l0 -0.55 -1.92 0 0 0.55c0,0.49 -0.4,0.89 -0.89,0.89 -0.49,0 -0.89,-0.4 -0.89,-0.89l0 -0.55 -2.39 0c-0.12,0 -0.2,0.1 -0.17,0.22l1.56 6.34c0.09,0.36 0.47,0.65 0.84,0.65l5.79 0c0.37,0 0.74,-0.29 0.84,-0.65l1.56 -6.34c0.03,-0.12 -0.05,-0.22 -0.17,-0.22z"/>
     </g>
    </g>
   </g>
   <rect class="fil3" x="82.97" y="67.84" width="21.81" height="7.86" rx="2.62" ry="2.62"/>
   <circle class="fil3" cx="83.5" cy="61.4" r="2.28"/>
   <circle class="fil3" cx="90.47" cy="61.4" r="2.28"/>
   <circle class="fil3" cx="97.44" cy="61.4" r="2.28"/>
   <circle class="fil3" cx="104.4" cy="61.4" r="2.28"/>
  </g>
  <g id="_2371361246576">
   <polygon class="fil1" points="173.23,42.04 133.04,42.04 133.04,16.03 173.23,16.03 "/>
   <polygon class="fil1" points="173.18,48.95 132.84,48.95 132.84,44.21 173.18,44.21 "/>
   <polygon class="fil1" points="172.63,54.09 132.69,54.09 132.69,51.04 172.63,51.04 "/>
   <g>
    <g>
     <g>
      <path class="fil2" d="M151.3 28.17c0.25,0 0.45,-0.2 0.45,-0.45l0 -1.74c0,-0.78 0.63,-1.41 1.41,-1.41 0.78,0 1.41,0.63 1.41,1.41l0 1.74c0,0.25 0.2,0.45 0.45,0.45 0.25,0 0.45,-0.2 0.45,-0.45l0 -1.74c0,-1.27 -1.03,-2.3 -2.3,-2.3 -1.27,0 -2.3,1.03 -2.3,2.3l0 1.74c-0,0.25 0.2,0.45 0.44,0.45z"/>
      <path class="fil2" d="M158.26 27.17l-2.36 0 0 0.55c0,0.49 -0.4,0.89 -0.89,0.89 -0.49,0 -0.89,-0.4 -0.89,-0.89l0 -0.55 -1.92 0 0 0.55c0,0.49 -0.4,0.89 -0.89,0.89 -0.49,0 -0.89,-0.4 -0.89,-0.89l0 -0.55 -2.39 0c-0.12,0 -0.2,0.1 -0.17,0.22l1.56 6.34c0.09,0.36 0.47,0.65 0.84,0.65l5.79 0c0.37,0 0.74,-0.29 0.84,-0.65l1.56 -6.34c0.03,-0.12 -0.05,-0.22 -0.17,-0.22z"/>
     </g>
    </g>
   </g>
   <rect class="fil3" x="141.76" y="67.84" width="21.81" height="7.86" rx="2.62" ry="2.62"/>
   <circle class="fil3" cx="142.29" cy="61.4" r="2.28"/>
   <circle class="fil3" cx="149.26" cy="61.4" r="2.28"/>
   <circle class="fil3" cx="156.22" cy="61.4" r="2.28"/>
   <circle class="fil3" cx="163.19" cy="61.4" r="2.28"/>
  </g>
  <g id="_2371361247920">
   <polygon class="fil1" points="232.02,42.04 191.83,42.04 191.83,16.03 232.02,16.03 "/>
   <polygon class="fil1" points="231.97,48.95 191.63,48.95 191.63,44.21 231.97,44.21 "/>
   <polygon class="fil1" points="231.42,54.09 191.48,54.09 191.48,51.04 231.42,51.04 "/>
   <g>
    <g>
     <g>
      <path class="fil2" d="M210.08 28.17c0.25,0 0.45,-0.2 0.45,-0.45l0 -1.74c0,-0.78 0.63,-1.41 1.41,-1.41 0.78,0 1.41,0.63 1.41,1.41l0 1.74c0,0.25 0.2,0.45 0.45,0.45 0.25,0 0.45,-0.2 0.45,-0.45l0 -1.74c0,-1.27 -1.03,-2.3 -2.3,-2.3 -1.27,0 -2.3,1.03 -2.3,2.3l0 1.74c-0,0.25 0.2,0.45 0.44,0.45z"/>
      <path class="fil2" d="M217.04 27.17l-2.36 0 0 0.55c0,0.49 -0.4,0.89 -0.89,0.89 -0.49,0 -0.89,-0.4 -0.89,-0.89l0 -0.55 -1.92 0 0 0.55c0,0.49 -0.4,0.89 -0.89,0.89 -0.49,0 -0.89,-0.4 -0.89,-0.89l0 -0.55 -2.39 0c-0.12,0 -0.2,0.1 -0.17,0.22l1.56 6.34c0.09,0.36 0.47,0.65 0.84,0.65l5.79 0c0.37,0 0.74,-0.29 0.84,-0.65l1.56 -6.34c0.03,-0.12 -0.05,-0.22 -0.17,-0.22z"/>
     </g>
    </g>
   </g>
   <rect class="fil3" x="200.54" y="67.84" width="21.81" height="7.86" rx="2.62" ry="2.62"/>
   <circle class="fil3" cx="201.07" cy="61.4" r="2.28"/>
   <circle class="fil3" cx="208.04" cy="61.4" r="2.28"/>
   <circle class="fil3" cx="215.01" cy="61.4" r="2.28"/>
   <circle class="fil3" cx="221.97" cy="61.4" r="2.28"/>
  </g>
 </g>
</svg>
