<?xml version="1.0" encoding="UTF-8"?>


<!DOCTYPE svg PUBLIC "-//W3C//DTD SVG 1.1//EN" "http://www.w3.org/Graphics/SVG/1.1/DTD/svg11.dtd">

<svg xmlns="http://www.w3.org/2000/svg" xml:space="preserve" width="3.71219in" height="1.40534in" version="1.1"
     style="shape-rendering:geometricPrecision; text-rendering:geometricPrecision; image-rendering:optimizeQuality; fill-rule:evenodd; clip-rule:evenodd"
     viewBox="0 0 249.12 94.31"
>
 <defs>
  <style type="text/css">
   <![CDATA[
    .fil1 {fill:#FEFEFE;fill-rule:nonzero}
    .fil0 {fill:#FEFEFE;fill-rule:nonzero;fill-opacity:0.050980}
   ]]>
  </style>
 </defs>
    <g id="Layer_x0020_1">
  <metadata id="CorelCorpID_0Corel-Layer"/>
        <polygon class="fil0" points="249.12,94.31 -0,94.31 -0,0 249.12,0 "/>
        <polygon class="fil1" points="117.83,52.38 19.06,52.38 19.06,11.89 117.83,11.89 "/>
        <polygon class="fil1" points="119.36,63.78 18.76,63.78 18.76,59.84 119.36,59.84 "/>
        <polygon class="fil1" points="119.36,70.85 18.76,70.85 18.76,66.9 119.36,66.9 "/>
        <polygon class="fil1" points="95.85,78.26 19,78.26 19,74.32 95.85,74.32 "/>
        <polygon class="fil1" points="95.96,86.02 19.12,86.02 19.12,82.07 95.96,82.07 "/>
        <polygon class="fil1" points="177.53,28.76 137.03,28.76 137.03,10.87 177.53,10.87 "/>
        <polygon class="fil1" points="177.48,35.72 136.82,35.72 136.82,30.95 177.48,30.95 "/>
        <polygon class="fil1" points="176.93,40.91 136.67,40.91 136.67,37.83 176.93,37.83 "/>
        <polygon class="fil1" points="165.86,45.45 136.67,45.45 136.67,42.38 165.86,42.38 "/>
        <polygon class="fil1" points="227.78,28.58 187.27,28.58 187.27,10.69 227.78,10.69 "/>
        <polygon class="fil1" points="227.73,35.54 187.07,35.54 187.07,30.77 227.73,30.77 "/>
        <polygon class="fil1" points="227.17,40.72 186.92,40.72 186.92,37.65 227.17,37.65 "/>
        <polygon class="fil1" points="216.1,45.27 186.92,45.27 186.92,42.19 216.1,42.19 "/>
        <polygon class="fil1" points="177.17,69.72 136.66,69.72 136.66,51.83 177.17,51.83 "/>
        <polygon class="fil1" points="177.12,76.68 136.46,76.68 136.46,71.91 177.12,71.91 "/>
        <polygon class="fil1" points="176.57,81.87 136.31,81.87 136.31,78.79 176.57,78.79 "/>
        <polygon class="fil1" points="165.5,86.41 136.31,86.41 136.31,83.34 165.5,83.34 "/>
        <polygon class="fil1" points="227.23,69.36 186.72,69.36 186.72,51.46 227.23,51.46 "/>
        <polygon class="fil1" points="227.18,76.32 186.52,76.32 186.52,71.54 227.18,71.54 "/>
        <polygon class="fil1" points="226.63,81.5 186.37,81.5 186.37,78.43 226.63,78.43 "/>
        <polygon class="fil1" points="215.56,86.05 186.37,86.05 186.37,82.97 215.56,82.97 "/>
 </g>
</svg>
