<svg xmlns="http://www.w3.org/2000/svg" xml:space="preserve" width="600" height="600" version="1.0" style="shape-rendering:geometricPrecision;text-rendering:geometricPrecision;image-rendering:optimizeQuality;fill-rule:evenodd;clip-rule:evenodd" viewBox="0 0 202.92 202.92"><defs><style>.fil1,.fil2{fill:#e6e7e8}.fil2{fill-rule:nonzero}</style></defs><g id="Layer_x0020_1"><path style="fill:none" d="M0 0h202.92v202.92H0z"/><path class="fil1" d="M56.39 17.21H168.1V30H56.39z"/><path class="fil1" transform="rotate(-90 85.174 71.85)" d="M0 0h111.71v12.79H0z"/><path class="fil1" d="M89.79 89.06h61.36v61.36H89.79z"/><path class="fil2" d="M104.27 68.97h22.1l-11.05 20.09-11.05-20.09zm13.16-20.63v22.37h-4.23V48.34h4.23zm-13.16 1.74 11.05-20.09 11.05 20.09h-22.1zM69.7 116.11v-22.1l20.09 11.05-20.09 11.05zm-25.25-13.16h26.99v4.22H44.45v-4.22zm1.75 13.16-20.09-11.05L46.2 94.01v22.1z"/></g></svg>