<svg xmlns="http://www.w3.org/2000/svg" xml:space="preserve" width="600" height="600" version="1.0" style="shape-rendering:geometricPrecision;text-rendering:geometricPrecision;image-rendering:optimizeQuality;fill-rule:evenodd;clip-rule:evenodd" viewBox="0 0 198.05 198.05"><defs><style>.fil0{fill:none}.fil1,.fil2{fill:#e6e7e8}.fil2{fill-rule:nonzero}</style></defs><g id="Layer_x0020_1"><path class="fil0" d="M0 0h198.05v198.05H0z"/><path class="fil1" d="M111.45 122.36h59.89v38.79h-59.89z"/><path class="fil2" d="M166.8 14.76H30.57c-9.88 0-17.92 8.05-17.92 17.93v121.88c0 9.88 8.04 17.93 17.92 17.93h86.04c1.98 0 3.59-1.61 3.59-3.59 0-1.98-1.61-3.58-3.59-3.58H30.57c-5.92 0-10.75-4.83-10.75-10.76V50.61h157.74v75.28c0 1.98 1.6 3.59 3.58 3.59s3.59-1.61 3.59-3.59v-93.2c0-9.88-8.05-17.93-17.93-17.93zm10.76 28.68H19.82V32.69c0-5.93 4.82-10.76 10.75-10.76H166.8c5.93 0 10.76 4.83 10.76 10.76v10.75z"/><circle class="fil2" cx="30.57" cy="32.69" r="3.58"/><circle class="fil2" cx="44.91" cy="32.69" r="3.58"/><circle class="fil2" cx="59.25" cy="32.69" r="3.58"/><path class="fil2" d="M128.75 99.39h21.57L139.54 119l-10.79-19.61zm12.85-33.41v35.11h-4.13V65.98h4.13zm-12.85 1.7 10.79-19.61 10.78 19.61h-21.57z"/><path class="fil1" d="M41.28 47.95h62.75v21.32H41.28z"/><path class="fil0" style="stroke:#e6e7e8;stroke-width:2.75;stroke-miterlimit:2.61313;stroke-dasharray:2.75 2.75" d="M111.45 125.66H41.47"/><path class="fil2" d="M64.33 104.04H85.9l-10.79 19.61-10.78-19.61zm12.85-16.87v18.57h-4.13V87.17h4.13zm-12.85 1.7 10.78-19.61L85.9 88.87H64.33z"/></g></svg>