<svg xmlns="http://www.w3.org/2000/svg" xml:space="preserve" width="600" height="600" version="1.0" style="shape-rendering:geometricPrecision;text-rendering:geometricPrecision;image-rendering:optimizeQuality;fill-rule:evenodd;clip-rule:evenodd" viewBox="0 0 199.27 199.27"><defs><style>.fil2{fill:#e6e7e8;fill-rule:nonzero}</style></defs><g id="Layer_x0020_1"><path style="fill:none" d="M0 0h199.27v199.27H0z"/><path style="fill:#e6e7e8" d="M112.14 101.89h60.25v60.25h-60.25z"/><path class="fil2" d="M167.82 14.85H30.76c-9.94 0-18.03 8.1-18.03 18.04v122.63c0 9.94 8.09 18.04 18.03 18.04h86.57c1.99 0 3.6-1.62 3.6-3.61 0-1.99-1.61-3.61-3.6-3.61H30.76c-5.96 0-10.82-4.85-10.82-10.82V50.92h158.7v75.75c0 1.99 1.62 3.6 3.61 3.6 1.99 0 3.61-1.61 3.61-3.6V32.89c0-9.94-8.1-18.04-18.04-18.04zm10.82 28.86H19.94V32.89c0-5.97 4.86-10.82 10.82-10.82h137.06c5.97 0 10.82 4.85 10.82 10.82v10.82z"/><circle class="fil2" cx="30.76" cy="32.89" r="3.61"/><circle class="fil2" cx="45.19" cy="32.89" r="3.61"/><circle class="fil2" cx="59.62" cy="32.89" r="3.61"/><path class="fil2" d="M129.54 81.5h21.71l-10.86 19.73-10.85-19.73zm12.93-15.12v16.83h-4.15V66.38h4.15zm-12.93 1.71 10.85-19.72 10.86 19.72h-21.71zM88.91 135.49v-21.71l19.73 10.86-19.73 10.85zm-48.88-12.93h50.59v4.15H40.03v-4.15zm1.71 12.93-19.73-10.85 19.73-10.86v21.71z"/></g></svg>