<!--
  - Copyright (c) 2023. Selldone® Business OS™
  -
  - Author: M.Pajuhaan
  - Web: https://selldone.com
  - ━━━━━━━━━━━━━━━━━━━━━━━━━━━━━━━━━━━━━━━━━━━━━━━━━━━━━━
  -
  - All rights reserved. In the weave of time, where traditions and innovations intermingle, this content was crafted.
  - From the essence of thought, through the corridors of creativity, each word, and sentiment has been molded.
  - Not just to exist, but to inspire. Like an artist's stroke or a sculptor's chisel, every nuance is deliberate.
  - Our journey is not just about reaching a destination, but about creating a masterpiece.
  - Tread carefully, for you're treading on dreams.
  -->

<svg xmlns="http://www.w3.org/2000/svg" width="1391.74" height="1046.85" viewBox="0 0 1391.74 1046.85"><title>Asset 4</title><g id="Layer_2" data-name="Layer 2"><g id="Banners"><g id="Banner"><path d="M609.12,963c15,9,33.29,13.05,42.08,29.92a35.88,35.88,0,0,1,2.36,26.53c-10.93,36.67-55.9,34.3-74.61,6.17-12-18.11-16.32-41.72-13.52-63.08,1.05-8,3.94-19.34,10.12-25,7.87-7.2,12.77-1.51,16.84,5.88C597.23,952.19,601.36,958.33,609.12,963Z" fill="#b71842"/><path d="M1113.19,124.73c-2-9.63-7.57-19-16.39-23.31s-21-2.28-26.26,6c-5.7,8.94-2,20.56.72,30.8a152.1,152.1,0,0,1,5.12,33.47c.25,6.22.18,12.71,3,18.27,9.66,19.2,22.1-.14,25.54-11.22C1110.21,161.67,1117,142.82,1113.19,124.73Z" fill="#b71842"/><path d="M1158.84,99l.06-.16c10.72-27.6,38.65-48.26,61.63-20.05,14.73,18.08,12.93,51.4,5.94,72.14-11.75,34.84-40.17,64.8-69.59,85.79-13,9.28-35.73,19-45.35.13-8.82-17.34,11.38-34.87,19.51-48.2C1148.15,160.64,1147.35,128.74,1158.84,99Z" fill="#b71842"/><path d="M372.29,749.9c217,217.3,594.08,287.09,808.62,137.43,22-15.37,124.67-87,148.56-213,23.33-123.08-36-258.36-130.73-328.68-152-112.77-273.67,31.69-491-62.17C510.21,198.16,464.77,15.75,330,36.5,254.4,48.14,208.84,114.72,201,126.11,93.63,283.08,202.86,580.21,372.29,749.9Z" fill="#b71842"/><path d="M421.65,903.87A377.64,377.64,0,0,1,349,896.92c-63.64-12.52-117.82-41.69-156.69-84.36-76.6-84.09-98.7-221.9-51.41-320.54,24.57-51.26,63.61-85.1,126.58-109.72a4.54,4.54,0,1,1,3.31,8.46c-60.66,23.72-98.19,56.16-121.7,105.18-45.79,95.5-24.32,229,49.93,310.5,79.79,87.59,213.85,102.1,311.32,77.63,82.7-20.76,122.72-65.64,161.43-109,37.47-42,72.87-81.7,142.74-92.09,77-11.43,136.23,20.72,193.55,51.82s111.2,60.34,174,36c67.53-26.24,98.64-95.8,110.35-122,38.14-85.28,33.16-196.71-13.66-305.7-51.08-118.92-140.56-210.69-239.34-245.5a4.54,4.54,0,1,1,3-8.57c101.14,35.64,192.61,129.27,244.67,250.48,47.82,111.32,52.78,225.4,13.6,313-12.13,27.12-44.34,99.16-115.35,126.74-66.68,25.91-122.5-4.38-181.58-36.44-56-30.39-113.93-61.82-187.88-50.82-66.62,9.9-101,48.4-137.3,89.15-37.77,42.36-80.59,90.36-166,111.8A375.89,375.89,0,0,1,421.65,903.87Z" fill="#353535"/><path d="M482.13,94.39c-71.33,57.52-66.85,137-100.47,245.33-71,228.66-206.59,246.89-192.11,345.45,23.81,162.12,421.63,323.74,729.33,196.4,47.07-19.48,218-90.22,260.87-244C1253.63,372.65,897.3,40.65,639.62,45.23,612.48,45.71,540.91,47,482.13,94.39Z" fill="#ef0c43"/><path d="M269.18,391.08a4.54,4.54,0,0,1-1.66-8.77c31.33-12.25,66.06-21.49,102.83-31.28,101.11-26.91,215.71-57.4,324.23-164.28,2-2,4.2-4.17,6.5-6.46,32-31.93,85.51-85.37,171.31-104,37.84-8.21,98.06-12.68,170,12.68a4.54,4.54,0,0,1-3,8.57C969.44,72.89,911,77.2,874.32,85.17c-83.2,18.06-135.54,70.32-166.82,101.55-2.31,2.3-4.49,4.48-6.54,6.5C590.73,301.79,474.9,332.61,372.7,359.81c-36.52,9.72-71,18.9-101.86,31A4.54,4.54,0,0,1,269.18,391.08Z" fill="#353535"/><path d="M419.06,49.73H337.78a4.54,4.54,0,1,1,0-9.08h81.28a4.54,4.54,0,0,1,0,9.08Z" fill="#353535"/><path d="M378.42,90.37a4.54,4.54,0,0,1-4.54-4.54V4.54a4.54,4.54,0,0,1,9.08,0V85.83A4.54,4.54,0,0,1,378.42,90.37Z" fill="#353535"/><path d="M1112.39,906.51a4.52,4.52,0,0,1-3.21-1.33l-17.47-17.47a4.54,4.54,0,1,1,6.42-6.42l17.47,17.47a4.54,4.54,0,0,1-3.21,7.75Z" fill="#353535"/><path d="M1104.65,924.75h-24.71a4.54,4.54,0,1,1,0-9.08h24.71a4.54,4.54,0,1,1,0,9.08Z" fill="#353535"/><path d="M1094.6,960.58a4.54,4.54,0,0,1-3.21-7.75l17.47-17.47a4.54,4.54,0,1,1,6.42,6.42l-17.47,17.47A4.53,4.53,0,0,1,1094.6,960.58Z" fill="#353535"/><path d="M1130.31,975.56a4.54,4.54,0,0,1-4.54-4.54V946.3a4.54,4.54,0,0,1,9.08,0V971A4.54,4.54,0,0,1,1130.31,975.56Z" fill="#353535"/><path d="M1166.14,960.9a4.53,4.53,0,0,1-3.21-1.33l-17.47-17.47a4.54,4.54,0,0,1,6.42-6.42l17.47,17.47a4.54,4.54,0,0,1-3.21,7.75Z" fill="#353535"/><path d="M1181.11,925.19h-24.71a4.54,4.54,0,0,1,0-9.08h24.71a4.54,4.54,0,1,1,0,9.08Z" fill="#353535"/><path d="M1149,906.83a4.54,4.54,0,0,1-3.21-7.75l17.47-17.47a4.54,4.54,0,0,1,6.42,6.42L1152.2,905.5A4.53,4.53,0,0,1,1149,906.83Z" fill="#353535"/><path d="M1130.75,899.09a4.54,4.54,0,0,1-4.54-4.54V869.84a4.54,4.54,0,1,1,9.08,0v24.71A4.54,4.54,0,0,1,1130.75,899.09Z" fill="#353535"/><circle cx="1182.51" cy="731.24" r="12.67" fill="#353535"/><path d="M721.46,1039.68a32.23,32.23,0,1,1,32.23-32.23A32.26,32.26,0,0,1,721.46,1039.68Zm0-55.37a23.14,23.14,0,1,0,23.14,23.14A23.17,23.17,0,0,0,721.46,984.31Z" fill="#353535"/><path d="M1354.78,341.4a37,37,0,1,1,37-37A37,37,0,0,1,1354.78,341.4Zm0-64.83a27.87,27.87,0,1,0,27.87,27.88A27.91,27.91,0,0,0,1354.78,276.56Z" fill="#353535"/><path d="M71.64,274.33a46.17,46.17,0,1,1,46.17-46.17A46.22,46.22,0,0,1,71.64,274.33Zm0-83.26a37.09,37.09,0,1,0,37.09,37.09A37.13,37.13,0,0,0,71.64,191.07Z" fill="#353535"/><path d="M1239.06,221.42c21.45-2.11,48,25.49,28.28,45-9.95,9.88-28,4.29-40,2.67-9.9-1.33-71,18.26-53.75-12.29C1185.61,235.5,1215.91,223.7,1239.06,221.42Z" fill="#ef0c43"/><path d="M33,383.22c-9.82,3.45-19.44,8.51-25.95,16.64s-9.3,19.82-4.86,29.23C9.18,444,30,446.48,45.48,441s28.6-16.43,44.11-21.88c9.5-3.34,19.61-4.49,29.61-5.71,6.39-.78,13.65-2.13,17-7.63C153.64,377.13,46.37,378.51,33,383.22Z" fill="#b71842"/><path d="M93.56,438.83c-5.92,4.24-9.91,10.18-8.22,18.52a14.47,14.47,0,0,0,16,11.06c5.48-.89,9.89-4.87,13.37-9s6.57-8.69,11.13-11.77c4.29-2.89,10.15-4.85,11.66-9.51,4.68-14.51-19.28-9-25.93-7.19C105.87,432.54,98.92,435,93.56,438.83Z" fill="#b71842"/></g><g id="Text"><path d="M465.92,633.24V602.37H454.39v-4.13h27.74v4.13H470.56v30.87Zm31.89,0v-35h15.52a20.63,20.63,0,0,1,7.11.94,7.79,7.79,0,0,1,3.89,3.33,9.94,9.94,0,0,1,1.46,5.28,8.8,8.8,0,0,1-2.41,6.28q-2.41,2.56-7.45,3.25a12,12,0,0,1,2.79,1.74,24,24,0,0,1,3.84,4.66l6.09,9.52h-5.82L518.2,626q-2-3.15-3.34-4.82a10.46,10.46,0,0,0-2.35-2.34,6.92,6.92,0,0,0-2.11-.93,13.8,13.8,0,0,0-2.58-.17h-5.37v15.54Zm4.63-19.55h10a14.87,14.87,0,0,0,5-.66,5.28,5.28,0,0,0,2.72-2.1,5.68,5.68,0,0,0,.93-3.14,5.21,5.21,0,0,0-1.8-4.08q-1.8-1.6-5.69-1.6H502.44ZM544,633.24v-35H569.3v4.13H548.63v10.72H568v4.11H548.63v11.91h21.48v4.13Zm43.32,0v-35h4.75l18.38,27.48V598.24h4.44v35h-4.75l-18.38-27.5v27.5Zm46.21,0v-35h12.06a29.24,29.24,0,0,1,6.23.5,11.91,11.91,0,0,1,5.13,2.51,14.25,14.25,0,0,1,4.14,6,23.47,23.47,0,0,1,1.37,8.32,24.45,24.45,0,0,1-.93,7.07,17.11,17.11,0,0,1-2.39,5.1,12.62,12.62,0,0,1-3.19,3.17,13,13,0,0,1-4.18,1.76,23.83,23.83,0,0,1-5.62.6Zm4.63-4.13h7.47a18.1,18.1,0,0,0,5.43-.65,7.77,7.77,0,0,0,3.14-1.81,11,11,0,0,0,2.57-4.43,21.66,21.66,0,0,0,.92-6.74q0-5.49-1.8-8.44a9.09,9.09,0,0,0-4.38-4,18.19,18.19,0,0,0-6-.71h-7.35Zm51.39,4.13V618.41l-13.49-20.17h5.63l6.9,10.55q1.91,3,3.56,5.92,1.57-2.74,3.82-6.18l6.78-10.29h5.39l-14,20.17v14.83Zm57,0v-35h13.13a16.24,16.24,0,0,1,6.43,1.06,8.28,8.28,0,0,1,3.8,3.27,8.63,8.63,0,0,1,1.37,4.62,7.93,7.93,0,0,1-1.22,4.22,8.71,8.71,0,0,1-3.68,3.2,9.14,9.14,0,0,1,4.88,3.17,8.5,8.5,0,0,1,1.71,5.3,10.23,10.23,0,0,1-1,4.57,8.86,8.86,0,0,1-2.57,3.26,10.69,10.69,0,0,1-3.83,1.73,23.25,23.25,0,0,1-5.65.59Zm4.63-20.29h7.57a16.83,16.83,0,0,0,4.42-.41,4.9,4.9,0,0,0,2.66-1.74,5,5,0,0,0,.9-3.06,5.62,5.62,0,0,0-.84-3.07,4.22,4.22,0,0,0-2.39-1.81,19.89,19.89,0,0,0-5.32-.49h-7Zm0,16.16h8.71a19.91,19.91,0,0,0,3.15-.17,7.51,7.51,0,0,0,2.67-1,5.07,5.07,0,0,0,1.77-1.95,6.1,6.1,0,0,0,.69-2.95,5.81,5.81,0,0,0-1-3.4,5.3,5.3,0,0,0-2.78-2,17.29,17.29,0,0,0-5.12-.59h-8.09Zm35.18,4.13,13.44-35h5l14.32,35h-5.28l-4.08-10.6H795.09l-3.84,10.6Zm10.1-14.37h11.87l-3.66-9.69q-1.67-4.42-2.48-7.26a44.73,44.73,0,0,1-1.89,6.68Zm37.16,14.37v-35h4.75l18.38,27.48V598.24h4.44v35h-4.75L838,605.74v27.5Zm46.16,0v-35h4.75l18.38,27.48V598.24h4.44v35h-4.75l-18.38-27.5v27.5Zm46.31,0v-35h25.31v4.13H930.69v10.72H950v4.11H930.69v11.91h21.49v4.13Zm43.44,0v-35H985a20.64,20.64,0,0,1,7.12.94,7.79,7.79,0,0,1,3.89,3.33,9.93,9.93,0,0,1,1.46,5.28,8.8,8.8,0,0,1-2.41,6.28q-2.41,2.56-7.45,3.25a12.08,12.08,0,0,1,2.8,1.74,24.12,24.12,0,0,1,3.84,4.66l6.09,9.52h-5.82L989.88,626q-2-3.15-3.34-4.82a10.51,10.51,0,0,0-2.35-2.34,6.94,6.94,0,0,0-2.11-.93,13.81,13.81,0,0,0-2.58-.17h-5.37v15.54Zm4.63-19.55h10a14.86,14.86,0,0,0,5-.66,5.27,5.27,0,0,0,2.72-2.1,5.68,5.68,0,0,0,.93-3.14,5.21,5.21,0,0,0-1.8-4.08q-1.8-1.6-5.69-1.6H974.13Z" fill="#fff"/><path d="M1039.23,579.73H420.36a3,3,0,0,1-3-3h0a3,3,0,0,1,3-3h618.86a3,3,0,0,1,3,3h0A3,3,0,0,1,1039.23,579.73Z" fill="#fff"/></g><text transform="translate(544 526.78)" font-size="124.66" fill="#fff" font-family="MyriadPro-Bold, Myriad Pro" font-weight="700">PHOTO</text></g></g></svg>