<!--
  - Copyright (c) 2023. Selldone® Business OS™
  -
  - Author: M.Pajuhaan
  - Web: https://selldone.com
  - ━━━━━━━━━━━━━━━━━━━━━━━━━━━━━━━━━━━━━━━━━━━━━━━━━━━━━━
  -
  - All rights reserved. In the weave of time, where traditions and innovations intermingle, this content was crafted.
  - From the essence of thought, through the corridors of creativity, each word, and sentiment has been molded.
  - Not just to exist, but to inspire. Like an artist's stroke or a sculptor's chisel, every nuance is deliberate.
  - Our journey is not just about reaching a destination, but about creating a masterpiece.
  - Tread carefully, for you're treading on dreams.
  -->

<svg xmlns="http://www.w3.org/2000/svg" width="1372.75" height="1068.07" viewBox="0 0 1372.75 1068.07"><title>Asset 3</title><g id="Layer_2" data-name="Layer 2"><g id="Banners"><g id="Banner"><path d="M126.63,840.65c32.57-26.55,27.75-98.41-16.17-109.11-37.32-9.09-94,22.45-76.6,66.26,10.25,25.81,44.31,58.15,74.54,51.63A42.91,42.91,0,0,0,126.63,840.65Z" fill="#fa0"/><path d="M1246.44,559.93c20.19,19.44,36.72,54.35,67.5,58.08,33.62,4.07,59.74-32.34,58.79-63.51-1.5-49.26-54.25-80.52-100.33-75.44-21,2.32-44.92,11.42-54.2,32.17C1207.26,535.67,1231.27,545.34,1246.44,559.93Z" fill="#fa0"/><path d="M382,889.79c309.5,145.73,779.53,214.06,826.85-181C1235.84,483.41,993.55,233,803,220,648.69,209.4,632.71,361.26,529.22,441.79c-63.45,49.37-149.76,59.77-223,33.71C240.82,452.22,166.07,363.09,94,409.16,53.22,435.25,43.21,496.87,50.5,548.7,75.5,726.25,248.22,826.81,382,889.79Z" fill="#fa0"/><path d="M24.32,596.65a5,5,0,0,1-.94-.1,5.09,5.09,0,0,1-4-6c17.53-86.23,205.07-332.24,446.54-459.39C628.31,45.68,785.14,30.57,919.46,87.51a5.09,5.09,0,0,1-4,9.37C782.2,40.39,632.54,55,470.68,140.17,231.83,265.94,46.58,508,29.38,592.58A5.09,5.09,0,0,1,24.32,596.65Z" fill="#353535"/><path d="M1068.24,619.85c102.45-121,181.14-211.46,167.84-299.95-7.82-52-55.79-86.54-72.72-98.71-109.18-78.51-227.68-24.27-426.23-27-307.11-4.3-428-139.76-526.47-66.66C139.84,180.06,149,289.83,155,362.5c11.22,135.09,88.6,228.85,146.89,300.78,91.56,113,192.61,177.31,246.89,207.83,120.84,67.92,255,128.25,329,113.54C1032.21,953.93,907.29,809.88,1068.24,619.85Z" fill="#f7ce26"/><path d="M1032.21,953.93c-49.66-.78-91.78-20.28-140.55-42.87-58-26.86-130.06-60.25-240.46-74.48a832.42,832.42,0,0,0-93.86-6.31c-55.32-.86-111.55,2.42-165.93,5.59-50.06,2.93-97.34,5.69-140.14,5-76.9-1.2-125.94-13.63-159-40.31C46,763.33,27.47,717,26.71,715c-.87-2.2-21.13-54.55-7.31-123.64l9.67,2c-13.19,66.05,6.62,117.55,6.82,118.07.75,1.87,18.9,46.31,62.54,81.5,31.26,25.2,78.39,37,152.81,38.13,42.43.66,89.61-2.1,139.56-5,54.75-3.19,111.15-6.48,166.69-5.61a842.06,842.06,0,0,1,94.95,6.39C764.37,841.21,837.21,875,895.74,902.08c49.88,23.1,89.27,41.35,136.42,42.08,24.45.38,49.66-4.1,77.09-13.67,41.79-14.59,89.14-31.12,125.57-75.22,132.74-160.68-45.42-478.95-53.07-492.42-37.15-65.43-114.39-201.43-265.47-265.8L920.14,88c154.18,65.68,232.51,203.65,270.19,270,19.52,34.37,186.86,340.46,52.1,503.58-38.17,46.21-86.91,63.23-129.91,78.24-28.35,9.9-54.62,14.52-80.31,14.12Z" fill="#353535"/><path d="M1253.24,322.89a5.07,5.07,0,0,1-3.57-1.55l-19.27-19.88a5.09,5.09,0,0,1,7.31-7.08L1257,314.26a5.09,5.09,0,0,1-3.73,8.63Z" fill="#353535"/><path d="M1244.26,343.18l-27.68-.43a5.09,5.09,0,0,1,.16-10.18l27.68.43a5.09,5.09,0,0,1-.16,10.18Z" fill="#353535"/><path d="M1232.37,383.14a5.09,5.09,0,0,1-3.46-8.74l19.88-19.27a5.09,5.09,0,1,1,7.08,7.31L1236,381.71A5.07,5.07,0,0,1,1232.37,383.14Z" fill="#353535"/><path d="M1272.1,400.54a5.09,5.09,0,0,1-5-5.17l.43-27.68a5.09,5.09,0,1,1,10.18.16l-.43,27.68A5.09,5.09,0,0,1,1272.1,400.54Z" fill="#353535"/><path d="M1312.5,384.75a5.07,5.07,0,0,1-3.57-1.55l-19.27-19.88a5.09,5.09,0,0,1,7.31-7.08l19.27,19.88a5.09,5.09,0,0,1-3.73,8.63Z" fill="#353535"/><path d="M1329.9,345l-27.68-.43a5.09,5.09,0,0,1,.16-10.18l27.68.43a5.09,5.09,0,1,1-.16,10.18Z" fill="#353535"/><path d="M1294.23,323.88a5.09,5.09,0,0,1-3.46-8.74l19.88-19.27a5.09,5.09,0,0,1,7.08,7.31l-19.88,19.27A5.07,5.07,0,0,1,1294.23,323.88Z" fill="#353535"/><path d="M1273.94,314.9a5.09,5.09,0,0,1-5-5.17l.43-27.68a5.09,5.09,0,1,1,10.18.16l-.43,27.68A5.09,5.09,0,0,1,1273.94,314.9Z" fill="#353535"/><path d="M572.31,1021.5l-91.05-1.42a5.29,5.29,0,0,1,.17-10.57l91.05,1.42a5.29,5.29,0,0,1-.17,10.57Z" fill="#353535"/><path d="M526,1068.06a5.19,5.19,0,0,1-5-5.36l1.48-94.55a5.09,5.09,0,1,1,10.18.16l-1.48,94.55A5.19,5.19,0,0,1,526,1068.06Z" fill="#353535"/><path d="M1031.57,1064.78a36.1,36.1,0,1,1,36.66-35.53A36.14,36.14,0,0,1,1031.57,1064.78Zm1-62a25.93,25.93,0,1,0,25.52,26.33A26,26,0,0,0,1032.54,1002.76Z" fill="#353535"/><path d="M50.92,348.59a51.73,51.73,0,1,1,52.53-50.91A51.78,51.78,0,0,1,50.92,348.59Zm1.46-93.27a41.55,41.55,0,1,0,40.89,42.19A41.6,41.6,0,0,0,52.38,255.32Z" fill="#353535"/><circle cx="460.91" cy="85.07" r="14.03" transform="translate(368.66 544.59) rotate(-89.11)" fill="#353535"/><path d="M637,79.71l-.17-.09c-29.58-15-49.52-48.44-15.53-70.93C643.14-5.73,680.08,0,702.43,10.07,740,27,770.21,62,790.36,97.15c8.91,15.52,17.28,41.95-4.88,50.57-20.31,7.91-37.61-16.54-51.57-27.09C704.55,98.45,668.89,95.81,637,79.71Z" fill="#f7ce26"/><path d="M295.3,905.55q.93,1.4,1.92,2.77c7.72,10.68,20.61,18.24,26.18,30.35,8.74,19-8.21,39.37-26.14,44.52-20.38,5.85-40.22-6.85-50.83-23.72C229.77,933,213.55,882,249.48,862.62c15.57-8.42,24.67,4,31.37,16.64C285.49,888,289.78,897.26,295.3,905.55Z" fill="#fa0"/></g><g id="Text"><path d="M412.22,611.7V580.12h-11.8V575.9h28.38v4.23H417V611.7Zm32.62,0V575.9h15.87a21.1,21.1,0,0,1,7.28,1,8,8,0,0,1,4,3.41,10.16,10.16,0,0,1,1.49,5.4,9,9,0,0,1-2.47,6.42q-2.47,2.61-7.62,3.32a12.33,12.33,0,0,1,2.86,1.78,24.57,24.57,0,0,1,3.93,4.76l6.23,9.74h-6l-4.74-7.45q-2.08-3.22-3.42-4.93a10.69,10.69,0,0,0-2.41-2.39,7.08,7.08,0,0,0-2.16-1,14.13,14.13,0,0,0-2.64-.17h-5.5v15.9Zm4.74-20h10.18a15.2,15.2,0,0,0,5.08-.67,5.4,5.4,0,0,0,2.78-2.15,5.81,5.81,0,0,0,1-3.21,5.33,5.33,0,0,0-1.84-4.18q-1.85-1.64-5.82-1.64H449.58Zm42.51,20V575.9H518v4.23H496.83v11h19.81v4.2H496.83v12.19h22v4.22Zm44.32,0V575.9h4.86L560.07,604V575.9h4.54v35.8h-4.86l-18.8-28.13V611.7Zm47.27,0V575.9H596a29.89,29.89,0,0,1,6.37.51,12.18,12.18,0,0,1,5.25,2.56,14.58,14.58,0,0,1,4.24,6.12,24,24,0,0,1,1.4,8.51,25,25,0,0,1-1,7.23,17.51,17.51,0,0,1-2.44,5.22,12.92,12.92,0,0,1-3.26,3.25,13.27,13.27,0,0,1-4.27,1.8,24.37,24.37,0,0,1-5.75.61Zm4.74-4.22h7.64a18.5,18.5,0,0,0,5.56-.66,7.94,7.94,0,0,0,3.21-1.86,11.31,11.31,0,0,0,2.63-4.53,22.17,22.17,0,0,0,.94-6.9q0-5.62-1.84-8.63a9.3,9.3,0,0,0-4.48-4,18.61,18.61,0,0,0-6.13-.73h-7.52ZM641,611.7V596.53l-13.8-20.64H633L640,586.69q2,3,3.64,6.06,1.61-2.81,3.91-6.32l6.94-10.53H660l-14.29,20.64V611.7Zm58.28,0V575.9H712.7a16.6,16.6,0,0,1,6.58,1.09,8.46,8.46,0,0,1,3.88,3.35,8.82,8.82,0,0,1,1.4,4.73,8.11,8.11,0,0,1-1.24,4.32,8.92,8.92,0,0,1-3.76,3.27,9.35,9.35,0,0,1,5,3.25,8.7,8.7,0,0,1,1.75,5.42,10.45,10.45,0,0,1-1.06,4.68,9.06,9.06,0,0,1-2.63,3.33,10.94,10.94,0,0,1-3.92,1.77,23.79,23.79,0,0,1-5.78.6ZM704,590.94h7.74a17.22,17.22,0,0,0,4.52-.42,5,5,0,0,0,2.72-1.78,5.13,5.13,0,0,0,.92-3.13,5.75,5.75,0,0,0-.85-3.14,4.31,4.31,0,0,0-2.44-1.86,20.35,20.35,0,0,0-5.45-.5H704Zm0,16.53h8.91a20.39,20.39,0,0,0,3.22-.17,7.68,7.68,0,0,0,2.74-1,5.19,5.19,0,0,0,1.81-2,6.24,6.24,0,0,0,.71-3,6,6,0,0,0-1-3.48,5.42,5.42,0,0,0-2.85-2.08,17.68,17.68,0,0,0-5.24-.6H704Zm36,4.22,13.75-35.8h5.11l14.65,35.8h-5.4l-4.18-10.84H749L745,611.7ZM750.32,597h12.14l-3.74-9.92q-1.71-4.52-2.54-7.42a45.86,45.86,0,0,1-1.93,6.84Zm38,14.7V575.9h4.86L812,604V575.9h4.54v35.8h-4.86l-18.8-28.13V611.7Zm47.22,0V575.9h4.86L859.23,604V575.9h4.54v35.8h-4.86l-18.8-28.13V611.7Zm47.37,0V575.9h25.89v4.23H887.67v11h19.8v4.2h-19.8v12.19h22v4.22Zm44.44,0V575.9h15.87a21.11,21.11,0,0,1,7.28,1,8,8,0,0,1,4,3.41,10.16,10.16,0,0,1,1.49,5.4,9,9,0,0,1-2.47,6.42q-2.47,2.61-7.62,3.32a12.36,12.36,0,0,1,2.86,1.78A24.68,24.68,0,0,1,952.7,602l6.23,9.74h-6l-4.74-7.45q-2.08-3.22-3.42-4.93a10.76,10.76,0,0,0-2.4-2.39,7.1,7.1,0,0,0-2.16-1,14.13,14.13,0,0,0-2.64-.17h-5.49v15.9Zm4.74-20h10.18a15.19,15.19,0,0,0,5.08-.67,5.39,5.39,0,0,0,2.78-2.15,5.81,5.81,0,0,0,1-3.21,5.34,5.34,0,0,0-1.84-4.18q-1.85-1.64-5.83-1.64H932.11Zm69.7-37.85h0a3.11,3.11,0,0,0-3.11-3.11H365.61a3.11,3.11,0,0,0-3.11,3.11h0a3.11,3.11,0,0,0,3.11,3.11H998.7A3.11,3.11,0,0,0,1001.81,553.85Z" fill="#353535"/></g><text transform="translate(505.45 517.93)" font-size="124.66" fill="#fff" font-family="MyriadPro-Bold, Myriad Pro" font-weight="700">PHOTO</text></g></g></svg>