

<svg xmlns="http://www.w3.org/2000/svg" width="1296.31" height="1124.59" viewBox="0 0 1296.31 1124.59"><title>Asset 2</title><g id="Layer_2" data-name="Layer 2"><g id="Banners"><g id="Banner"><g opacity="0.95"><path d="M245.54,1051.69l-.15.08c-25.11,14-58.79,12.13-58.49-23.19.19-22.64,22.17-46.43,40.25-57.6,30.36-18.76,70.16-23.55,105.16-21,15.47,1.12,38.51,7.9,34,28-4.15,18.42-30.1,19-44.44,23.94C291.7,1012.27,272.53,1036.61,245.54,1051.69Z" fill="#4bb216"/></g><g opacity="0.95"><path d="M381.39,1035c-9.16,18.81,7,52.25,31.45,40.93,12.34-5.72,13.36-24.07,15.93-35.51,2.12-9.46,40.57-58.45,6.95-53.08C412.24,991.11,391.28,1014.71,381.39,1035Z" fill="#4bb216"/></g><g opacity="0.95"><path d="M132.2,482.32c-23.56-42-32.13-89.83-11.89-147.66C151.49,245.56,236.2,171,330.25,157.42c173.31-24.95,376.39,48.48,517.35,146.9C1025.52,428.53,1247,642.16,1154.35,881.8,1112,991.3,1009.09,1068.53,896.23,1094c-162.33,36.68-328.75-47.17-431.91-170.33-61.56-73.49-81.85-172.06-141.17-246.37C266.2,606,178.2,564.35,132.2,482.32Z" fill="#4bb216"/></g><path d="M699.24,404.71c-4.28,0-8.67-.13-13.19-.41-43.35-2.67-66-17.2-94.78-35.6-32.06-20.52-72-46.07-158.28-70a4.66,4.66,0,1,1,2.5-9C523.16,314,563.72,340,596.3,360.85,625,379.21,645.69,392.47,686.63,395c60.07,3.68,97.25-19.7,136.61-44.48C865,324.23,908.19,297,981.57,298.85c28.4.7,126.44,8.5,195.5,79.66a4.66,4.66,0,0,1-6.69,6.5c-66.6-68.63-161.53-76.16-189-76.84-70.6-1.74-112.55,24.69-153.13,50.23C790.46,382.17,754.64,404.71,699.24,404.71Z" fill="#353535"/><path d="M854.93,932.11C660.69,1006,490.2,961.66,340,922.58c-131.72-34.27-186.67-73.5-222.53-120.15-15-19.55-53.58-71.22-52.46-143.67.07-4.23,3.07-101.54,77.49-163.37,99-82.26,201.16-2.28,296.4-79.73,51-41.46,73.45-107.35,101.49-166.79,47.24-100.11,148.1-157.21,258.7-141.24,157,22.65,337,179.35,360.23,384.32,3.59,31.69,13.06,149.31-59.17,262.95C1029.83,865.57,924.47,905.65,854.93,932.11Z" fill="#5cd60d"/><path d="M727.54,1064.56c-80.36,0-154.63-18.89-215.72-55-56.17-33.22-75.25-65.67-97.35-103.25-23.73-40.37-50.64-86.13-129-149.78-45-36.57-84.35-60.27-115.95-79.32C116.16,645,77.63,621.8,56,564.5,29.57,494.63,39.46,413,81.18,356.63c51-68.94,131.93-80.67,175.42-87,46.55-6.75,106.74,0,178.89,20a4.66,4.66,0,0,1-2.5,9C362.1,279,303.2,272.33,257.94,278.89,215.8,285,137.36,296.36,88.68,362.18c-39.88,53.92-49.3,132-24,199,20.51,54.28,56,75.65,109.61,108,31.84,19.2,71.46,43.09,117,80.06C371,814,399.57,862.54,422.51,901.56c22.32,38,40,68,94.05,99.95,149.29,88.28,336,54.22,450.52-1.77,97.28-47.56,169.18-114.8,213.69-199.83,55.25-105.54,98.08-303.13-10.39-414.9a4.66,4.66,0,0,1,6.69-6.5c49.29,50.79,73.38,124.32,69.66,212.63-3,71.12-24,148.79-57.69,213.1-45.46,86.83-118.76,155.43-217.86,203.88-68.91,33.69-149.41,53.64-226.68,56.17C738.82,1064.47,733.16,1064.56,727.54,1064.56Z" fill="#353535"/><path d="M942.65,152.79a4.65,4.65,0,0,1-3.3-1.37l-23.21-23.21a4.66,4.66,0,0,1,6.6-6.59l23.21,23.21a4.66,4.66,0,0,1-3.3,8Z" fill="#353535"/><path d="M932.37,177H899.54a4.66,4.66,0,0,1,0-9.33h32.83a4.66,4.66,0,0,1,0,9.33Z" fill="#353535"/><path d="M919,224.62a4.66,4.66,0,0,1-3.3-8l23.21-23.21a4.66,4.66,0,1,1,6.6,6.59l-23.21,23.21A4.65,4.65,0,0,1,919,224.62Z" fill="#353535"/><path d="M966.45,244.52a4.66,4.66,0,0,1-4.66-4.66V207a4.66,4.66,0,1,1,9.33,0v32.83A4.66,4.66,0,0,1,966.45,244.52Z" fill="#353535"/><path d="M1014.06,225a4.65,4.65,0,0,1-3.3-1.37l-23.21-23.21a4.66,4.66,0,0,1,6.59-6.59l23.21,23.21a4.66,4.66,0,0,1-3.3,8Z" fill="#353535"/><path d="M1034,177.61h-32.83a4.66,4.66,0,0,1,0-9.33H1034a4.66,4.66,0,1,1,0,9.33Z" fill="#353535"/><path d="M991.27,153.21a4.66,4.66,0,0,1-3.3-8L1011.18,122a4.66,4.66,0,1,1,6.6,6.59l-23.21,23.21A4.65,4.65,0,0,1,991.27,153.21Z" fill="#353535"/><path d="M967,142.94a4.66,4.66,0,0,1-4.66-4.66V105.45a4.66,4.66,0,0,1,9.33,0v32.83A4.66,4.66,0,0,1,967,142.94Z" fill="#353535"/><path d="M956.33,1097.09a4.66,4.66,0,0,1-1-9.21l71.11-16.09a4.66,4.66,0,1,1,2.06,9.1L957.36,1097A4.6,4.6,0,0,1,956.33,1097.09Z" fill="#353535"/><path d="M999.93,1124.59a4.66,4.66,0,0,1-4.54-3.63l-16.09-71.11a4.66,4.66,0,0,1,9.1-2.06l16.09,71.11a4.66,4.66,0,0,1-3.52,5.58A4.6,4.6,0,0,1,999.93,1124.59Z" fill="#353535"/><circle cx="1179.7" cy="592.74" r="13.18" fill="#353535"/><path d="M62.55,825.66a62.55,62.55,0,1,1,62.55-62.55A62.62,62.62,0,0,1,62.55,825.66Zm0-115.77a53.22,53.22,0,1,0,53.22,53.22A53.28,53.28,0,0,0,62.55,709.89Z" fill="#353535"/><path d="M1175.79,334.34a28.9,28.9,0,1,1,28.9-28.9A28.93,28.93,0,0,1,1175.79,334.34Zm0-48.47a19.57,19.57,0,1,0,19.57,19.57A19.59,19.59,0,0,0,1175.79,285.87Z" fill="#353535"/><path d="M635.05,58C625.65,33.73,608,9.26,582,1.78c-30.21-8.7-82.27,15.31-56.44,52.54C533,65,544.78,71.64,556.18,77.9c18.76,10.31,44.57,31.8,67.12,31.05,25.8-.88,18-34.39,12.21-49.77Z" fill="#5cd60d"/><path d="M529.5,96.8c-9.05,2.77-16.09,11.6-19.05,20.36-2.64,7.8-1.36,17.21,5.34,22.6,6.09,4.9,14.68,5.17,22.42,4.06,7.09-1,14-2.85,21.23-2.75,4.49.06,8.94.63,13.44.45,8.57-.35,16.83-3.4,12.66-13.49-4.53-11-20.34-19-29.69-25.36C547.53,97,538.17,94.14,529.5,96.8Z" fill="#5cd60d"/><path d="M1287.84,801c5.45-10.92,9.42-23,8.27-35.19s-8.34-24.28-19.77-28.58c-18-6.79-37.61,8.06-46.22,25.31s-10.67,37.18-19.28,54.42c-5.28,10.57-12.84,19.79-20.27,29-4.75,5.87-9.75,12.93-8.09,20.3C1191.2,904.63,1280.4,815.91,1287.84,801Z" fill="#5cd60d"/></g><g id="Text"><path d="M394.66,724.77V693.07H382.83v-4.24h28.48v4.24H399.42v31.69Zm32.74,0V688.83h15.93a21.19,21.19,0,0,1,7.3,1,8,8,0,0,1,4,3.42,10.21,10.21,0,0,1,1.49,5.42,9,9,0,0,1-2.48,6.45q-2.48,2.62-7.65,3.33a12.35,12.35,0,0,1,2.87,1.79,24.61,24.61,0,0,1,3.95,4.78l6.25,9.78h-6l-4.76-7.48q-2.08-3.23-3.43-5a10.73,10.73,0,0,0-2.41-2.4,7.09,7.09,0,0,0-2.17-1,14.15,14.15,0,0,0-2.65-.17h-5.52v16Zm4.76-20.08h10.22a15.26,15.26,0,0,0,5.1-.68,5.42,5.42,0,0,0,2.79-2.16,5.83,5.83,0,0,0,1-3.22,5.35,5.35,0,0,0-1.85-4.19q-1.85-1.64-5.85-1.64H432.16Zm42.67,20.08V688.83h26v4.24H479.58v11h19.88v4.22H479.58v12.23h22.06v4.24Zm44.48,0V688.83h4.88L543.06,717V688.83h4.56v35.94h-4.88l-18.87-28.24v28.24Zm47.45,0V688.83h12.38a30,30,0,0,1,6.4.51,12.21,12.21,0,0,1,5.27,2.57,14.63,14.63,0,0,1,4.25,6.14,24.1,24.1,0,0,1,1.41,8.54,25.1,25.1,0,0,1-1,7.26,17.57,17.57,0,0,1-2.45,5.23,13,13,0,0,1-3.27,3.26,13.33,13.33,0,0,1-4.29,1.8,24.47,24.47,0,0,1-5.77.61Zm4.76-4.24h7.67a18.57,18.57,0,0,0,5.58-.66A8,8,0,0,0,588,718a11.34,11.34,0,0,0,2.63-4.55,22.23,22.23,0,0,0,.94-6.92q0-5.64-1.85-8.67a9.33,9.33,0,0,0-4.5-4.06,18.67,18.67,0,0,0-6.15-.73h-7.55Zm52.77,4.24V709.54l-13.85-20.71h5.78l7.08,10.83q2,3,3.65,6.08,1.62-2.82,3.92-6.35l7-10.57h5.54L629,709.54v15.22Zm58.5,0V688.83h13.48a16.67,16.67,0,0,1,6.61,1.09,8.49,8.49,0,0,1,3.9,3.36,8.85,8.85,0,0,1,1.41,4.74,8.13,8.13,0,0,1-1.25,4.34,9,9,0,0,1-3.77,3.29,9.39,9.39,0,0,1,5,3.26,8.73,8.73,0,0,1,1.75,5.44,10.49,10.49,0,0,1-1.07,4.7,9.09,9.09,0,0,1-2.63,3.35,11,11,0,0,1-3.93,1.78,23.91,23.91,0,0,1-5.8.6Zm4.76-20.83h7.77a17.3,17.3,0,0,0,4.54-.42,5,5,0,0,0,2.73-1.79,5.16,5.16,0,0,0,.92-3.14,5.77,5.77,0,0,0-.86-3.15,4.33,4.33,0,0,0-2.45-1.86,20.43,20.43,0,0,0-5.47-.5h-7.18Zm0,16.6h8.95a20.44,20.44,0,0,0,3.24-.17,7.71,7.71,0,0,0,2.75-1,5.21,5.21,0,0,0,1.81-2,6.27,6.27,0,0,0,.71-3,6,6,0,0,0-1-3.49,5.44,5.44,0,0,0-2.86-2.08,17.75,17.75,0,0,0-5.26-.6h-8.31Zm36.12,4.24,13.8-35.94h5.12l14.71,35.94h-5.42l-4.19-10.88h-15l-3.95,10.88ZM734,710H746.2l-3.75-10q-1.72-4.54-2.55-7.45a46,46,0,0,1-1.94,6.86Zm38.16,14.76V688.83h4.88L795.93,717V688.83h4.56v35.94h-4.88l-18.87-28.24v28.24Zm47.4,0V688.83h4.88L843.33,717V688.83h4.56v35.94H843l-18.87-28.24v28.24Zm47.55,0V688.83h26v4.24H871.88v11h19.88v4.22H871.88v12.23h22.06v4.24Zm44.6,0V688.83h15.93a21.2,21.2,0,0,1,7.31,1,8,8,0,0,1,4,3.42,10.2,10.2,0,0,1,1.49,5.42,9,9,0,0,1-2.47,6.45q-2.48,2.62-7.65,3.33a12.39,12.39,0,0,1,2.87,1.79,24.74,24.74,0,0,1,3.95,4.78l6.25,9.78h-6l-4.76-7.48q-2.08-3.23-3.43-5a10.8,10.8,0,0,0-2.41-2.4,7.12,7.12,0,0,0-2.17-1,14.16,14.16,0,0,0-2.65-.17h-5.51v16Zm4.76-20.08H926.7a15.26,15.26,0,0,0,5.1-.68,5.42,5.42,0,0,0,2.8-2.16,5.83,5.83,0,0,0,1-3.22,5.36,5.36,0,0,0-1.85-4.19q-1.85-1.64-5.85-1.64H916.48Zm70-38h0a3.12,3.12,0,0,0-3.12-3.12H347.88a3.12,3.12,0,0,0-3.12,3.12h0a3.12,3.12,0,0,0,3.12,3.12H983.32A3.12,3.12,0,0,0,986.44,666.7Z" fill="#fff"/></g><text transform="translate(480.43 627.1)" font-size="124.66" fill="#fff" font-family="MyriadPro-Bold, Myriad Pro" font-weight="700">PHOTO</text></g></g></svg>