<svg xmlns="http://www.w3.org/2000/svg" width="1237.49" height="1056.84" viewBox="0 0 1237.49 1056.84">
    <title>Asset 1</title>
    <g id="Layer_2" data-name="Layer 2">
        <g id="Banners">
            <g id="Banner">
                <path d="M726,99.8c9.43-22.82,13.3-51.21.37-73.33C711.27.72,659.81-16.86,653.17,25.6c-1.9,12.19,1.87,24.47,5.59,36.23,6.14,19.36,9.79,51,25.76,65.25,18.29,16.29,34.87-11.83,41-26.18Z"
                      fill="#0097e2"/>
                <path d="M628.08,57.35c-8-4-18.64-2.57-26.41,1.51-6.92,3.63-12.2,10.93-11.12,19,1,7.35,6.7,13.16,12.73,17.47,5.52,3.95,11.49,7.22,16.38,12,3,3,5.73,6.28,8.93,9.1,6.11,5.37,13.78,8.68,17.52-1,4.07-10.51-1.52-26.37-3.78-36.85C640.33,69.29,635.78,61.2,628.08,57.35Z"
                      fill="#0097e2"/>
                <path d="M206.35,948.85c8.26,15.71,22.07,27.61,34.83,39.94,21.29,20.56,41,43.73,67.14,57.56s61.66,15.7,82.84-5c18.15-17.72,20.51-46,18.5-71.24-1.48-18.72-5.56-38.85-19.66-51.26-13.78-12.14-33.59-13.84-51.92-15C305.23,901.9,159.12,858.88,206.35,948.85Z"
                      fill="#0097e2"/>
                <path d="M991.44,690.83c11.79,41.49,19.91,81,23.78,117,6.29,58.47-4.89,121.52-40.7,159-32.68,34.23-80.47,42-125.23,36.24C729.13,987.55,611.15,949,493,915.64c-106.15-30-224.92-39.73-325.84-93.77-63.51-34-122.1-101.36-128.23-182.71-6.91-91.75,51.9-160.06,96-222.72C177,356.57,212.23,289.92,255.17,230.9,529.06-145.54,893.23,345.22,991.44,690.83Z"
                      fill="#0097e2"/>
                <path d="M23.19,828.82C18,730.92,63.93,627.91,104.42,537c7.12-16,14.13-31.7,20.73-47.1,24.91-58,55.78-134.95,73.55-215l10.84,2.4c-18,81-49.09,158.48-74.19,217-6.62,15.44-13.65,31.21-20.79,47.24-40,89.74-85.3,191.46-80.29,286.7Z"
                      fill="#353535"/>
                <path d="M471.21,269.48a486.51,486.51,0,0,1-58.28,29.19C246.21,369.1-63.81,478.58,11.63,714.61c22.05,69,88.91,115.21,158.15,136.47,99.07,30.41,201.17,24.94,302.9,35.5,207.49,21.54,563.56,95,627.06-187.93,29-129.41-35.56-256-126-345C892,273.23,792,179.89,674.5,160.74c-49.42-8-90.74,26.33-126.74,54.91C521.41,236.57,497.38,254.06,471.21,269.48Z"
                      fill="#00b1ff"/>
                <path d="M223.5,979.92c-49.77,0-108.54-9-150.25-43.67C42.44,910.64,25.6,874.5,23.19,828.82l11.1-.58c2.24,42.45,17.73,75.91,46.07,99.47,57.6,47.88,151.29,43.81,202,37.12C363.79,954.1,434.54,921.51,509.44,887c35.05-16.15,71.3-32.84,108.63-47,84-31.92,175.23-53,271.16-62.68,11.36-1.14,23.7-2.19,36.72-3.29,91-7.68,215.52-18.21,263.83-85.92,21.25-29.78,25.91-69.08,13.88-116.81-22.47-89-88.66-175.3-148.94-249.16-68-83.37-145.15-151.73-229.2-203.19C742.72,68.23,657.44,38,572,29.15,463.24,17.83,320.44,26.46,258.16,131.86,232,176.07,220.71,227,209.77,276.34l-.22,1-10.84-2.41.22-1c11.14-50.15,22.65-102,49.67-147.73C313.87,15.74,461.16,6.44,573.2,18.1c87.05,9,173.89,39.79,258.11,91.35,85.12,52.12,163.18,121.31,232,205.65,61,74.78,128.08,162.21,151.1,253.47,12.87,51,7.63,93.42-15.6,126-51.29,71.89-178.82,82.67-271.93,90.54-13,1.1-25.25,2.13-36.55,3.27-95,9.57-185.24,30.44-268.33,62-37,14-73,30.67-107.93,46.74-72.36,33.33-147.18,67.79-230.27,78.75A466.72,466.72,0,0,1,223.5,979.92Z"
                      fill="#353535"/>
                <path d="M1191,616.49c19.61-15.8,34.79-38.51,42.36-61.08,4-11.82,6.15-25,1.74-36.63-11.73-31.05-45.19-22.63-57.43,3.24-8.22,17.37-11.2,36.78-19.68,54-6.1,12.37-32.74,32.83-29.48,47.85s24,12.7,34.61,8.77A100,100,0,0,0,1191,616.49Z"
                      fill="#00b1ff"/>
                <path d="M1103.55,867.65a5.23,5.23,0,0,1-3.71-1.54l-20.2-20.2a5.25,5.25,0,0,1,7.42-7.42l20.2,20.2a5.25,5.25,0,0,1-3.71,9Z"
                      fill="#353535"/>
                <path d="M1094.61,888.73H1066a5.25,5.25,0,0,1,0-10.5h28.57a5.25,5.25,0,0,1,0,10.5Z" fill="#353535"/>
                <path d="M1083,930.15a5.25,5.25,0,0,1-3.71-9l20.2-20.2a5.25,5.25,0,0,1,7.42,7.42l-20.2,20.2A5.23,5.23,0,0,1,1083,930.15Z"
                      fill="#353535"/>
                <path d="M1124.26,947.46a5.25,5.25,0,0,1-5.25-5.25V913.65a5.25,5.25,0,0,1,10.5,0v28.57A5.25,5.25,0,0,1,1124.26,947.46Z"
                      fill="#353535"/>
                <path d="M1165.69,930.52A5.23,5.23,0,0,1,1162,929l-20.2-20.2a5.25,5.25,0,0,1,7.42-7.42l20.2,20.2a5.25,5.25,0,0,1-3.71,9Z"
                      fill="#353535"/>
                <path d="M1183,889.24h-28.56a5.25,5.25,0,1,1,0-10.5H1183a5.25,5.25,0,1,1,0,10.5Z" fill="#353535"/>
                <path d="M1145.85,868a5.25,5.25,0,0,1-3.71-9l20.2-20.2a5.25,5.25,0,1,1,7.42,7.42l-20.2,20.2A5.23,5.23,0,0,1,1145.85,868Z"
                      fill="#353535"/>
                <path d="M1124.78,859.07a5.25,5.25,0,0,1-5.25-5.25V825.25a5.25,5.25,0,1,1,10.5,0v28.57A5.25,5.25,0,0,1,1124.78,859.07Z"
                      fill="#353535"/>
                <circle cx="483.21" cy="990.57" r="15.61" fill="#353535"/>
                <path d="M64.91,419.16a53.38,53.38,0,1,1,53.38-53.37A53.43,53.43,0,0,1,64.91,419.16Zm0-96.25a42.87,42.87,0,1,0,42.87,42.87A42.92,42.92,0,0,0,64.91,322.91Z"
                      fill="#353535"/>
                <path d="M823.07,252.59a37.25,37.25,0,1,1,37.25-37.25A37.29,37.29,0,0,1,823.07,252.59Zm0-64a26.75,26.75,0,1,0,26.75,26.75A26.78,26.78,0,0,0,823.07,188.59Z"
                      fill="#353535"/>
                <path d="M61.55,842.29a5.25,5.25,0,0,1,0-10.5l71.5-.18h0a5.25,5.25,0,0,1,0,10.5l-71.5.18Z"
                      fill="#353535"/>
                <path d="M97.39,878a5.25,5.25,0,0,1-5.26-5.24l-.18-71.5a5.25,5.25,0,0,1,5.24-5.26h0a5.25,5.25,0,0,1,5.26,5.24l.18,71.5A5.25,5.25,0,0,1,97.39,878Z"
                      fill="#353535"/>
            </g>
            <g id="Text">
                <path d="M294.37,682.8V650.21H282.2v-4.36h29.28v4.36H299.26V682.8Zm33.66,0V645.85h16.38a21.78,21.78,0,0,1,7.51,1,8.22,8.22,0,0,1,4.11,3.52,10.49,10.49,0,0,1,1.54,5.57,9.29,9.29,0,0,1-2.54,6.63q-2.55,2.7-7.86,3.43a12.7,12.7,0,0,1,2.95,1.84,25.33,25.33,0,0,1,4.06,4.91l6.43,10.05h-6.15l-4.89-7.69q-2.14-3.32-3.53-5.09a11.06,11.06,0,0,0-2.48-2.47,7.31,7.31,0,0,0-2.23-1,14.58,14.58,0,0,0-2.72-.18h-5.67V682.8Zm4.89-20.64h10.51a15.7,15.7,0,0,0,5.24-.69,5.57,5.57,0,0,0,2.87-2.22,6,6,0,0,0,1-3.31,5.5,5.5,0,0,0-1.9-4.31q-1.9-1.69-6-1.69H332.92Zm43.87,20.64V645.85H403.5v4.36H381.68v11.31h20.44v4.33H381.68v12.58h22.68v4.36Zm45.73,0V645.85h5l19.4,29v-29h4.69V682.8h-5l-19.4-29v29Zm48.78,0V645.85H484a30.82,30.82,0,0,1,6.58.53A12.57,12.57,0,0,1,496,649a15.05,15.05,0,0,1,4.37,6.31,24.79,24.79,0,0,1,1.45,8.78,25.81,25.81,0,0,1-1,7.46,18.08,18.08,0,0,1-2.52,5.38,13.31,13.31,0,0,1-3.36,3.35,13.7,13.7,0,0,1-4.41,1.85,25.18,25.18,0,0,1-5.93.63Zm4.89-4.36h7.89a19.1,19.1,0,0,0,5.73-.68,8.2,8.2,0,0,0,3.31-1.92,11.67,11.67,0,0,0,2.71-4.67,22.89,22.89,0,0,0,1-7.12q0-5.8-1.9-8.91a9.6,9.6,0,0,0-4.62-4.17,19.2,19.2,0,0,0-6.33-.75h-7.76Zm54.25,4.36V667.15l-14.24-21.29h5.95L529.42,657q2,3.12,3.76,6.25,1.66-2.89,4-6.53l7.16-10.86h5.7l-14.74,21.29V682.8Zm60.14,0V645.85h13.86a17.13,17.13,0,0,1,6.79,1.12,8.74,8.74,0,0,1,4,3.45,9.11,9.11,0,0,1,1.45,4.88,8.37,8.37,0,0,1-1.29,4.46,9.2,9.2,0,0,1-3.88,3.38,9.65,9.65,0,0,1,5.15,3.35,9,9,0,0,1,1.8,5.59,10.79,10.79,0,0,1-1.1,4.83,9.36,9.36,0,0,1-2.71,3.44,11.29,11.29,0,0,1-4,1.83,24.58,24.58,0,0,1-6,.62Zm4.89-21.42h8a17.78,17.78,0,0,0,4.66-.43,5.17,5.17,0,0,0,2.81-1.84,5.3,5.3,0,0,0,.95-3.23,5.94,5.94,0,0,0-.88-3.24,4.45,4.45,0,0,0-2.52-1.91,21,21,0,0,0-5.62-.52h-7.38Zm0,17.06h9.2a20.92,20.92,0,0,0,3.33-.18,7.91,7.91,0,0,0,2.82-1,5.35,5.35,0,0,0,1.86-2.05,6.43,6.43,0,0,0,.73-3.11,6.14,6.14,0,0,0-1.06-3.59,5.6,5.6,0,0,0-2.94-2.14,18.26,18.26,0,0,0-5.41-.62h-8.54Zm37.14,4.36,14.19-36.94H652l15.12,36.94H661.6l-4.31-11.19H641.84l-4.06,11.19Zm10.66-15.17h12.53l-3.86-10.23q-1.76-4.66-2.62-7.66a47.18,47.18,0,0,1-2,7.05Zm39.23,15.17V645.85h5l19.4,29v-29h4.69V682.8h-5l-19.4-29v29Zm48.73,0V645.85h5l19.4,29v-29h4.69V682.8h-5l-19.4-29v29Zm48.88,0V645.85H806.8v4.36H785v11.31h20.44v4.33H785v12.58h22.68v4.36Zm45.86,0V645.85h16.38a21.79,21.79,0,0,1,7.51,1,8.22,8.22,0,0,1,4.11,3.52,10.48,10.48,0,0,1,1.54,5.57,9.29,9.29,0,0,1-2.54,6.63q-2.55,2.7-7.86,3.43a12.74,12.74,0,0,1,3,1.84,25.46,25.46,0,0,1,4.06,4.91l6.42,10.05h-6.15l-4.89-7.69q-2.14-3.32-3.53-5.09a11.11,11.11,0,0,0-2.48-2.47,7.33,7.33,0,0,0-2.23-1,14.59,14.59,0,0,0-2.72-.18h-5.67V682.8Zm4.89-20.64h10.51a15.7,15.7,0,0,0,5.24-.69,5.57,5.57,0,0,0,2.87-2.22,6,6,0,0,0,1-3.31,5.51,5.51,0,0,0-1.9-4.31q-1.91-1.69-6-1.69H830.84Zm71.92-39.05h0a3.21,3.21,0,0,0-3.21-3.21H246.28a3.21,3.21,0,0,0-3.21,3.21h0a3.21,3.21,0,0,0,3.21,3.21H899.55A3.21,3.21,0,0,0,902.76,623.1Z"
                      fill="#fff"/>
            </g>
            <text transform="translate(360.59 580.56)" font-size="124.66" fill="#fff"
                  font-family="MyriadPro-Bold, Myriad Pro" font-weight="700">PHOTO
            </text>
        </g>
    </g>
</svg>